<?xml version="1.0" encoding="UTF-8"?>
<svg id="Layer_2" data-name="Layer 2" xmlns="http://www.w3.org/2000/svg" xmlns:xlink="http://www.w3.org/1999/xlink" viewBox="0 0 80 80">
  <defs>
    <style>
      .cls-1 {
        fill: #009cf7;
      }

      .cls-1, .cls-2, .cls-3, .cls-4, .cls-5, .cls-6, .cls-7, .cls-8 {
        stroke-width: 0px;
      }

      .cls-3 {
        fill: none;
      }

      .cls-4 {
        fill: #fff;
      }

      .cls-5 {
        fill: #ffd200;
      }

      .cls-6 {
        fill: #ff558b;
      }

      .cls-9 {
        clip-path: url(#clippath);
      }

      .cls-7 {
        fill: #006658;
      }

      .cls-8 {
        fill: #ff2a2a;
      }
    </style>
    <clipPath id="clippath">
      <rect class="cls-3" width="80" height="80"/>
    </clipPath>
  </defs>
  <g id="Layer_1-2" data-name="Layer 1">
    <g class="cls-9">
      <g>
        <path class="cls-2" d="M68.04,73.52c.02.24.4.24.38,0-.11-1.05.54-2.04,1.55-2.36.8-.25,1.6.05,1.84.89.1.37.11.73,0,1.07,0,0,0,0,0,0-.35,0-.68.09-1,.23-.24.11-.58.27-.63.56-.06.33.33.56.61.6.35.05.66-.14.89-.39.17-.18.3-.38.39-.59.05,0,.1.02.15.03.69.18,1.29.76,1.39,1.49.09.64-.41,1.03-1,1.15-.15-.21-.34-.4-.56-.52-.44-.25-.91-.14-1.08.35-.02.06,0,.15.05.18.39.32.9.43,1.4.39.15.28.24.6.19.91-.08.53-.54,1.04-1.07,1.15-1.05.23-2.09-.9-2.39-1.79-.08-.23-.45-.13-.37.1.26.74.8,1.41,1.49,1.8.58.33,1.29.43,1.87.05.59-.38.95-1.06.84-1.76-.03-.18-.09-.36-.17-.53.12-.03.24-.07.35-.12.77-.36,1.01-1.15.69-1.91-.29-.68-.93-1.18-1.65-1.33.08-.31.09-.64.03-.99-.09-.54-.39-1.06-.9-1.32-.46-.23-1.01-.22-1.49-.06-1.15.38-1.92,1.51-1.8,2.72ZM72.13,76.22c-.28-.01-.54-.08-.75-.21.19-.24.56.02.75.21ZM71.64,73.5s-.03.05-.04.07c-.14.22-.36.5-.64.55-.13.02-.26-.03-.36-.1-.08-.06-.06-.06,0-.13.17-.18.47-.27.7-.33.11-.03.23-.05.34-.06Z"/>
        <path class="cls-2" d="M67.74,74.47h-6.69c-.11-.01-.2-.1-.2-.22,0-.11.09-.2.2-.2h6.69c.11.01.2.1.2.22,0,.11-.09.2-.2.2Z"/>
        <path class="cls-2" d="M67.63,76.27h-4.19c-.11,0-.2-.1-.2-.21,0-.11.09-.2.2-.2h4.19c.11,0,.2.1.2.21,0,.11-.09.2-.2.2Z"/>
        <path class="cls-2" d="M24.19,49.51c-7.04,7.55-10.39,17.59-9.21,27.88.25,2.15,3.63,1.97,3.38-.2-1.08-9.45,1.89-18.49,8.36-25.43,1.49-1.6-1.04-3.84-2.53-2.25Z"/>
        <path class="cls-6" d="M18.46,74.95s2.16-1.74-2.15-1.89c-4.62-.15-1.71,1.79-1.71,1.79l-.7.39s-4.96-3.95-6.84-.07c-1.88,3.88,3.48,4.58,6.77,4.67,3.29.08,6.81.85,4.63-4.89Z"/>
        <path class="cls-2" d="M16.15,80c-.43,0-.89-.02-1.35-.04-.32-.01-.65-.03-.97-.04-2.6-.06-5.91-.49-6.93-2.16-.43-.71-.4-1.6.09-2.62.45-.92,1.1-1.48,1.95-1.68,1.15-.26,2.45.22,3.34.67.83.42,1.46.89,1.62,1.01l.54-.3c-.27-.2-.97-.77-.81-1.25.15-.47,1.02-.67,2.67-.61,1.64.05,2.56.35,2.73.88.16.48-.34.97-.49,1.11.76,2.03.86,3.39.3,4.16-.52.71-1.53.87-2.71.87ZM9.63,73.55c-.22,0-.44.02-.66.07-.8.18-1.42.72-1.84,1.59-.47.97-.51,1.8-.1,2.47.44.73,1.91,1.96,6.8,2.08.32,0,.65.02.97.04,1.68.08,3.27.15,3.93-.76.53-.73.42-2.06-.34-4.06l-.02-.05.04-.04s.64-.52.49-.98c-.11-.32-.64-.71-2.59-.77-1.93-.06-2.43.24-2.52.51-.12.39.57.96.85,1.15l.11.07-.85.48-.04-.03s-2.23-1.76-4.22-1.76Z"/>
        <path class="cls-2" d="M17.02,75.31c-.14,0-.28,0-.44-.02v-.16c1.13.11,1.84-.25,1.85-.25l.07.14s-.58.29-1.48.29Z"/>
        <path class="cls-2" d="M15.34,75.17c-.08,0-.34-.02-.78-.24l.07-.14c.47.24.71.22.72.22v.16s0,0-.01,0Z"/>
        <path class="cls-2" d="M13.91,75.24c.16.08.31.17.44.28.14.1.27.22.39.33.12.12.24.24.35.37.11.13.22.27.3.43h-.01s-.75-.69-.75-.69l-.74-.71h.01Z"/>
        <path class="cls-2" d="M13.91,75.25c.07.14.1.28.13.42.03.14.05.28.06.42,0,.14.01.28,0,.43,0,.14-.03.29-.07.43h-.02s-.07-.85-.07-.85l-.05-.85h.02Z"/>
        <path class="cls-4" d="M9.48,74.17c-.15.08-.3.15-.43.25-.07.04-.13.09-.2.14-.06.05-.13.1-.19.15-.24.21-.45.45-.6.73-.16.27-.27.57-.31.89l-.02.12v.12s-.03.24-.03.24c0,.16,0,.33,0,.5h-.02c-.02-.16-.05-.33-.06-.5v-.25s0-.13,0-.13v-.12s.05-.25.05-.25l.06-.24c.02-.08.06-.16.09-.24.03-.08.06-.16.11-.23.16-.29.39-.55.66-.75.27-.2.57-.36.89-.46v.02Z"/>
        <path class="cls-2" d="M53.41,68.31c-2.61.92-5.19,1.91-7.81,2.77-2.48.82-5.4,1.64-8.02,1.06-6.48-1.41-1-9.18.97-12.32,1.16-1.85-1.77-3.55-2.92-1.71-2.78,4.46-7.85,12.5-1.43,16.31,6.05,3.59,14.29-.81,20.11-2.86,2.04-.72,1.16-3.99-.9-3.26Z"/>
        <path class="cls-6" d="M49.98,69.09s-2.43-1.34-.93,2.7c1.61,4.33,2.31.91,2.31.91l.62.5s-1.78,6.08,2.53,6.36c4.3.27,2.93-4.95,1.76-8.03-1.17-3.07-1.79-6.63-6.28-2.44Z"/>
        <path class="cls-2" d="M54.82,79.64c-.1,0-.21,0-.32-.01-1.02-.07-1.79-.46-2.29-1.17-.68-.97-.72-2.35-.64-3.35.07-.92.27-1.69.32-1.89l-.49-.39c-.08.33-.35,1.19-.85,1.22-.49.04-1.01-.7-1.58-2.24-.57-1.54-.65-2.5-.22-2.86.38-.33,1.03-.05,1.21.04,1.59-1.47,2.81-2.08,3.73-1.85,1.17.28,1.72,1.82,2.3,3.45.11.3.22.61.33.91.93,2.43,1.78,5.66.63,7.23-.45.61-1.17.92-2.14.92ZM51.31,72.56l.76.61v.05s-.98,3.37.27,5.15c.47.67,1.2,1.04,2.17,1.1,1.08.07,1.86-.21,2.32-.84.5-.68,1.09-2.51-.65-7.08-.11-.3-.22-.61-.33-.91-.57-1.59-1.1-3.08-2.19-3.35-.88-.21-2.07.39-3.63,1.85l-.04.04-.05-.03s-.73-.39-1.09-.08c-.25.22-.41.86.27,2.69.67,1.81,1.15,2.16,1.42,2.14.41-.03.67-.89.74-1.22l.03-.12Z"/>
        <path class="cls-2" d="M50.86,70.75c-.32-1.07-.92-1.6-.93-1.6l.1-.12s.64.56.98,1.68l-.15.04Z"/>
        <path class="cls-2" d="M51.44,72.7h-.16c.04-.54-.06-.76-.06-.76l.14-.07s.13.25.08.83Z"/>
        <path class="cls-2" d="M51.97,73.19c0-.18.04-.35.09-.52.04-.17.1-.33.16-.49.06-.16.13-.32.21-.47.08-.15.17-.3.28-.44h.01s-.36.97-.36.97l-.38.96h-.01Z"/>
        <path class="cls-2" d="M51.98,73.19c.1-.11.22-.2.34-.28.12-.08.24-.15.37-.22.13-.06.26-.12.39-.16.14-.05.28-.08.43-.1h0s-.76.4-.76.4l-.77.37h0Z"/>
        <path class="cls-4" d="M52.66,77.7c.13.11.25.22.4.3.07.05.14.09.2.13.07.04.14.08.21.12.29.14.59.25.91.27.31.04.63.03.94-.05l.12-.02.12-.04.23-.08c.16-.05.3-.13.46-.19h0c-.15.1-.29.19-.44.26l-.23.1-.12.05-.12.03-.24.07-.25.03c-.08.02-.17,0-.25,0-.08,0-.17,0-.25-.02-.33-.04-.66-.15-.95-.32-.29-.17-.55-.39-.76-.65h.01Z"/>
        <path class="cls-2" d="M71.46,32.65c-.08-.42-.72-.21-.63.21.3,1.56.54,3.15.42,4.74-.12,1.49-.92,2.72-1.86,3.83-.91,1.08-1.81,2.12-2.4,3.43-.55,1.23-.76,2.67-.6,4,.18,1.49.71,2.93,1.1,4.37.41,1.53.51,3.01.25,4.58-.21,1.31-.75,2.52-1.8,3.37-1.03.84-2.29,1.19-3.59.88-1.52-.35-2.86-1.32-3.97-2.38-.62-.59-1.17-1.26-1.64-1.97-.47-.71-.78-1.49-1.1-2.27-.16-.4-.79-.19-.63.21.29.72.56,1.44.96,2.1.4.66.87,1.28,1.39,1.84.98,1.08,2.19,2.05,3.52,2.66,1.24.57,2.66.83,3.97.32,1.15-.45,2.13-1.28,2.76-2.34.75-1.26.95-2.84.95-4.28,0-1.64-.53-3.19-.97-4.75-.45-1.6-.78-3.15-.42-4.81.33-1.53,1.25-2.85,2.27-4.01,1.05-1.21,2.17-2.58,2.41-4.22.27-1.84-.04-3.72-.39-5.53Z"/>
        <path class="cls-5" d="M70.65,29.41l.05,1.78h-.51s-.05-1.76-.05-1.76c0-.03.03-.06.06-.06h.38s.06.02.06.05Z"/>
        <path class="cls-2" d="M70.12,31.28l-.05-1.85c0-.08.06-.14.14-.14h.38c.07-.01.14.05.14.13l.05,1.85-.66.02ZM70.22,29.44l.05,1.68h.35s-.05-1.69-.05-1.69h-.35Z"/>
        <path class="cls-5" d="M71.92,29.38l.05,1.78h-.51s-.05-1.76-.05-1.76c0-.03.03-.06.06-.06h.38s.06.01.06.05Z"/>
        <path class="cls-2" d="M71.39,31.25l-.05-1.85s.01-.07.04-.1c.03-.03.06-.04.1-.04h.38c.08-.01.14.05.14.13h0s.05,1.85.05,1.85l-.66.02ZM71.49,29.4l.05,1.68h.35s-.05-1.69-.05-1.69h-.35Z"/>
        <path class="cls-2" d="M69.58,30.69l.08,2.6,2.84-.08-.08-2.6-2.84.08Z"/>
        <path class="cls-2" d="M69.59,33.38l-.08-2.76,3-.09.08,2.76-3,.09ZM69.67,30.77l.07,2.44,2.69-.08-.07-2.44-2.69.08Z"/>
        <path class="cls-5" d="M66.77,45.5c.04.76-.54,1.4-1.3,1.44-.03,0-.07,0-.1,0h0c-.2,0-.4-.06-.57-.14-.1-.05-.19-.11-.28-.18-.28-.23-.46-.58-.48-.98-.02-.35.1-.67.3-.92.23-.3.59-.49,1-.51.75-.04,1.39.54,1.43,1.3Z"/>
        <path class="cls-2" d="M65.4,47.02s-.02,0-.03,0c-.21,0-.41-.06-.61-.15-.11-.05-.2-.12-.29-.19-.3-.25-.49-.63-.51-1.03-.02-.35.1-.7.32-.97.25-.32.64-.52,1.05-.54.39-.02.75.11,1.04.37.29.26.45.61.47,1,.04.8-.57,1.48-1.37,1.52-.02,0-.05,0-.08,0ZM65.41,44.28s-.04,0-.07,0c-.37.02-.71.19-.94.48-.2.25-.3.55-.28.87.02.36.18.69.46.92.08.07.17.13.26.17.17.08.35.13.54.13.04,0,.07,0,.1,0,.71-.04,1.26-.64,1.22-1.35-.03-.69-.6-1.22-1.29-1.22Z"/>
        <path class="cls-5" d="M71.18,55.39c.04.76-.54,1.4-1.3,1.44-.03,0-.07,0-.1,0h0c-.2,0-.4-.06-.57-.14-.1-.05-.19-.11-.28-.18-.28-.23-.46-.58-.48-.98-.02-.35.1-.67.3-.92.23-.3.59-.49,1-.51.75-.04,1.39.54,1.43,1.3Z"/>
        <path class="cls-2" d="M69.81,56.91s-.02,0-.03,0c-.21,0-.41-.06-.61-.15-.11-.05-.2-.12-.29-.19-.3-.25-.49-.63-.51-1.03-.02-.35.1-.7.32-.97.25-.32.64-.52,1.05-.54.39-.02.75.11,1.04.37.29.26.45.61.47,1,.02.39-.11.76-.37,1.04-.26.29-.61.45-1,.47-.02,0-.05,0-.07,0ZM69.82,54.18s-.04,0-.07,0c-.37.02-.71.19-.94.48-.2.24-.3.55-.28.87.02.36.18.69.46.92.08.07.17.13.26.17.17.08.35.13.54.13.04,0,.07,0,.1,0,.34-.02.66-.17.89-.42.23-.26.35-.59.33-.93h0c-.02-.34-.17-.66-.42-.89-.24-.22-.54-.33-.86-.33Z"/>
        <path class="cls-5" d="M64.08,60.77c.04.76-.54,1.4-1.3,1.44-.03,0-.07,0-.1,0h0c-.2,0-.4-.06-.57-.14-.1-.05-.19-.11-.28-.18-.28-.23-.46-.58-.48-.98-.02-.35.1-.67.3-.92.23-.3.59-.49,1-.51.75-.04,1.39.54,1.43,1.3Z"/>
        <path class="cls-2" d="M62.71,62.29s-.02,0-.03,0c-.21,0-.41-.06-.61-.15-.1-.05-.2-.12-.29-.19-.3-.25-.49-.63-.51-1.03-.02-.35.1-.7.32-.97.25-.32.64-.52,1.05-.54.39-.02.76.11,1.04.37.29.26.45.61.47,1h0c.02.39-.11.76-.37,1.04-.26.29-.61.45-1,.47-.02,0-.05,0-.07,0ZM62.71,59.55s-.04,0-.07,0c-.37.02-.71.19-.94.48-.2.24-.3.55-.28.87.02.36.18.69.46.92.08.07.17.13.26.17.17.08.35.13.54.13.04,0,.07,0,.1,0,.34-.02.66-.17.89-.42.23-.26.35-.59.33-.93h0c-.02-.34-.17-.66-.42-.89-.24-.22-.54-.33-.86-.33Z"/>
        <path class="cls-7" d="M61.94,68.04c-4.58-.66-9.37-1.49-14.35-2.53-7.08-1.47-13.67-3.18-19.73-4.99l3.21-1.19-8.77-1.54c1.35-.21,3.32-.34,4.45-.67-2.89-.64-6.24-1.6-9.86-3.05-4.3-1.73-7.86-3.72-10.68-5.55,1.5-.38,3.37-1.02,5.37-2.14,1.19-.66,2.19-1.36,3.03-2.02-2.45.25-4.9.49-7.35.74,2.52-1.3,5.31-2.91,8.24-4.93.03-.02.06-.04.08-.05.15-.11.31-.22.47-.32.12-.08.24-.17.36-.25.27-.19.54-.38.81-.58,3.14-2.29,5.8-4.59,8.01-6.73-1.98-.24-3.97-.47-5.95-.71,2.6-1.24,5.41-2.72,8.33-4.5.65-.4,1.29-.79,1.91-1.19.18-.12.36-.23.54-.35,0,0,0,0,.02-.01.28-.18.55-.36.82-.54.89-.6,1.76-1.2,2.58-1.79.07-.05.14-.1.21-.15.21-.15.41-.3.61-.44.04-.03.07-.05.1-.08.9-.66,1.75-1.32,2.56-1.97-1.9-.28-3.79-.55-5.69-.83,2.7-.85,5.7-2,8.89-3.55,2.03-.99,3.87-2.02,5.52-3.04-1.36-.13-2.72-.25-4.09-.38,1.91-.6,3.93-1.31,6.02-2.15.77-.31,1.52-.63,2.25-.94h0c2.45-1.08,4.69-2.2,6.7-3.32-.06.09-1.51,2.21-2.09,6.83-.25,2.01-.34,4.49-.08,7.47-.69-1.4-1.39-2.81-2.08-4.21.33,2.28.84,4.86,1.64,7.64,0,.02,0,.04.02.06.05.16.1.33.14.49h0s.02.06.02.09c.09.3.18.58.27.87.96,3.02,2.05,5.29,3.13,7.49-1.2-1.45-2.37-2.56-3.57-4.01.41,2.38.97,4.94,1.71,7.64,1.06,3.87,2.32,7.33,3.59,10.33-1.41-1.36-2.82-2.73-4.23-4.09.16,1.09.36,2.25.6,3.45.1.5.21,1,.33,1.52.03.16.07.32.11.48,0,.03.01.05.02.08.06.24.12.48.18.72,0,0,0,0,0,.02.15.61.32,1.24.5,1.88.37,1.32.77,2.58,1.19,3.76.01.04.03.08.04.12.06.18.13.36.19.54.05.15.11.3.17.45.53,1.45,1.09,2.8,1.65,4.03-1.36-1.05-2.73-2.11-4.09-3.16.44,1.63,1.15,3.64,2.3,5.82,1.22,2.31,2.58,4.12,3.73,5.44Z"/>
        <path class="cls-2" d="M62.14,68.14l-.21-.03c-4.78-.69-9.61-1.54-14.36-2.53-6.66-1.39-13.3-3.07-19.74-4.99l-.22-.07,3.16-1.17-8.95-1.58.46-.07c.46-.07.98-.13,1.53-.2.93-.11,1.88-.22,2.61-.39-3.25-.73-6.46-1.74-9.56-2.99-3.72-1.5-7.32-3.37-10.69-5.56l-.15-.1.17-.04c1.87-.48,3.67-1.19,5.35-2.13.98-.54,1.92-1.17,2.8-1.85h-.11c-2.32.24-4.65.48-6.97.71l-.41.04.37-.19c2.85-1.47,5.62-3.12,8.23-4.92l.08-.05c.16-.11.31-.22.47-.32.12-.08.23-.16.35-.25.27-.19.54-.38.81-.58,2.77-2.02,5.42-4.24,7.88-6.61l-6.06-.72.24-.12c2.83-1.35,5.63-2.86,8.32-4.49.71-.43,1.34-.82,1.9-1.19.18-.12.36-.23.54-.35,0,0,.01,0,.02-.01.27-.18.55-.36.81-.54.89-.6,1.76-1.2,2.58-1.79.04-.03.07-.05.11-.08.04-.03.07-.05.11-.08.21-.15.41-.3.61-.44l.1-.08c.83-.61,1.64-1.24,2.42-1.85l-.75-.11c-1.59-.23-3.18-.46-4.76-.69l-.34-.05.33-.1c3.04-.96,6.03-2.16,8.88-3.55,1.82-.89,3.61-1.87,5.32-2.91l-4.24-.39.37-.12c2.03-.63,4.05-1.36,6.02-2.15.67-.27,1.37-.56,2.2-.92l.05-.02c2.28-1,4.54-2.12,6.7-3.31l.29-.16-.19.27c-.15.22-1.52,2.32-2.08,6.8-.29,2.27-.31,4.78-.08,7.46l.04.41-.18-.37c-.62-1.25-1.24-2.51-1.86-3.76.37,2.42.9,4.82,1.57,7.14,0,.03,0,.04.01.06.05.17.1.34.15.5l.02.08c.08.26.16.52.24.77l.03.1c.94,2.96,2.02,5.23,3.12,7.48l.29.6-.43-.51c-.6-.72-1.19-1.37-1.77-1.99-.53-.57-1.07-1.15-1.61-1.79.44,2.46.99,4.93,1.65,7.35.96,3.51,2.17,6.98,3.58,10.32l.15.35-4.34-4.2c.16,1.06.35,2.14.57,3.22.11.55.22,1.04.33,1.52.03.13.06.26.09.39l.02.09s0,.03,0,.04c0,.02,0,.03.01.05l.04.15c.05.19.09.38.14.57h0s0,.02,0,.03c.15.6.32,1.23.49,1.86.35,1.26.75,2.53,1.19,3.76,0,.02.01.04.02.06,0,.02.01.04.02.06.06.18.12.36.19.54.05.15.11.3.17.45.51,1.38,1.06,2.73,1.64,4.03l.13.28-.25-.19c-1.3-1-2.6-2.01-3.9-3.02.54,1.92,1.29,3.8,2.23,5.58,1.03,1.94,2.28,3.77,3.72,5.42l.14.16ZM28.1,60.51c6.37,1.9,12.93,3.55,19.5,4.92,4.68.97,9.43,1.81,14.14,2.5-1.39-1.62-2.6-3.4-3.6-5.3-.98-1.86-1.76-3.82-2.31-5.83l-.06-.23.18.14c1.28.99,2.56,1.98,3.84,2.97-.54-1.21-1.05-2.48-1.52-3.75-.06-.15-.11-.3-.17-.45-.07-.18-.13-.36-.19-.54,0-.02-.01-.04-.02-.06,0-.02-.01-.04-.02-.06-.43-1.23-.83-2.5-1.19-3.76-.18-.63-.34-1.26-.5-1.88,0,0,0-.01,0-.02-.05-.19-.09-.38-.14-.56l-.04-.16s0-.03,0-.05c0-.01,0-.03,0-.04l-.02-.08c-.03-.13-.06-.26-.09-.39-.11-.47-.22-.97-.33-1.52-.23-1.16-.44-2.32-.6-3.45l-.03-.23,4.12,3.98c-1.35-3.24-2.51-6.59-3.44-9.99-.69-2.51-1.26-5.09-1.71-7.65l-.05-.29.19.23c.6.73,1.21,1.38,1.79,2.01.45.48.91.98,1.37,1.51-1.01-2.08-1.99-4.21-2.86-6.94l-.03-.1c-.08-.26-.16-.51-.24-.78l-.03-.09c-.05-.16-.09-.32-.14-.48,0-.02-.01-.04-.02-.06-.72-2.48-1.27-5.06-1.64-7.65l-.07-.48.22.44c.63,1.28,1.27,2.56,1.9,3.84-.2-2.54-.16-4.92.12-7.08.48-3.79,1.53-5.89,1.94-6.61-2.07,1.14-4.22,2.2-6.4,3.15h0s-.05.02-.05.02c-.86.37-1.57.67-2.25.95-1.85.75-3.75,1.43-5.66,2.04l3.93.36-.2.12c-1.77,1.09-3.63,2.12-5.53,3.04-2.76,1.34-5.64,2.5-8.58,3.45,1.48.21,2.95.43,4.43.64l1.11.16-.14.11c-.82.65-1.68,1.32-2.56,1.97l-.1.08c-.2.15-.4.29-.61.44-.04.03-.07.05-.11.08-.04.03-.07.05-.11.08-.82.59-1.69,1.19-2.58,1.79-.27.18-.54.36-.82.54,0,0-.01,0-.02.01-.18.12-.36.23-.54.35-.57.37-1.19.76-1.91,1.2-2.62,1.59-5.34,3.07-8.09,4.39l5.85.69-.12.11c-2.5,2.42-5.2,4.68-8.02,6.74-.27.2-.54.39-.81.58-.12.09-.24.17-.36.25-.16.11-.31.22-.47.32l-.08.05c-2.5,1.73-5.15,3.32-7.88,4.74,2.19-.22,4.38-.44,6.56-.66l.65-.06-.21.17c-.95.76-1.98,1.44-3.04,2.03-1.64.91-3.39,1.62-5.22,2.1,3.32,2.14,6.86,3.97,10.51,5.45,3.19,1.29,6.51,2.31,9.85,3.05l.3.07-.29.09c-.76.23-1.87.35-2.94.48-.36.04-.71.08-1.04.13l8.57,1.51-3.27,1.21Z"/>
        <path class="cls-2" d="M44.77,20.79c-.08,0-.15-.01-.21-.05-.43-.24-.3-1.06-.19-1.53-.33.32-.96.82-1.44.48-.1-.07-.15-.16-.17-.29-.08-.66,1.1-2,1.15-2.06l.12.1c-.33.37-1.17,1.44-1.11,1.93,0,.08.04.14.1.18.56.38,1.45-.68,1.46-.69l.26-.31-.12.38c-.12.39-.36,1.44.03,1.65.4.22,1.5-.73,1.9-1.11l.11.11c-.14.13-1.23,1.18-1.87,1.18Z"/>
        <path class="cls-2" d="M48.84,31.3s-.09,0-.13-.02c-.46-.17-.46-1-.42-1.48-.28.37-.83.95-1.36.69-.11-.05-.18-.14-.21-.26-.18-.64.78-2.14.82-2.2l.13.09c-.27.42-.94,1.6-.81,2.08.02.08.06.13.13.16.61.29,1.33-.89,1.34-.9l.21-.35-.06.4c-.06.4-.14,1.47.28,1.63.43.16,1.38-.94,1.71-1.38l.12.09c-.12.16-1.12,1.46-1.75,1.46Z"/>
        <path class="cls-2" d="M47.65,51.52h0c-.49,0-.77-.79-.89-1.26-.14.44-.46,1.17-1.05,1.11-.12-.01-.21-.07-.29-.18-.38-.55.03-2.28.04-2.35l.15.04c-.12.48-.35,1.82-.07,2.23.05.07.1.1.18.11.67.08.96-1.28.96-1.29l.08-.4.07.4c.07.4.36,1.44.8,1.44h0c.45,0,.98-1.35,1.15-1.87l.15.05c-.06.2-.65,1.98-1.3,1.98Z"/>
        <path class="cls-2" d="M22.99,42.09c-.05,0-.1,0-.14-.03-.46-.18-.44-1.01-.38-1.49-.28.36-.85.93-1.37.67-.11-.05-.17-.14-.21-.27-.17-.65.83-2.12.87-2.19l.13.09c-.28.41-.97,1.58-.85,2.06.02.08.06.13.13.17.6.31,1.35-.86,1.36-.87l.22-.34-.07.4c-.07.4-.17,1.47.24,1.63.42.17,1.4-.91,1.74-1.34l.12.1c-.12.15-1.14,1.42-1.77,1.42Z"/>
        <path class="cls-2" d="M32.59,58.12c-.05,0-.1,0-.14-.03-.46-.18-.44-1.01-.38-1.49-.28.36-.85.93-1.37.67-.11-.05-.17-.14-.21-.27-.17-.65.83-2.12.87-2.19l.13.09c-.28.41-.97,1.58-.85,2.06.02.08.06.13.13.17.6.31,1.35-.86,1.36-.87l.22-.34-.07.4c-.07.4-.17,1.47.24,1.63.42.17,1.4-.91,1.74-1.34l.12.1c-.12.15-1.14,1.42-1.77,1.42Z"/>
        <path class="cls-2" d="M51.46,62.56h0c-.49,0-.76-.8-.88-1.26-.14.44-.47,1.17-1.05,1.1-.12-.01-.21-.07-.29-.18-.38-.55.04-2.28.05-2.35l.15.04c-.12.48-.36,1.82-.08,2.23.05.07.1.1.18.11.67.08.96-1.28.97-1.29l.08-.39.07.4c.07.4.35,1.44.8,1.45h0c.45,0,.99-1.34,1.16-1.86l.15.05c-.07.2-.66,1.97-1.31,1.97Z"/>
        <path class="cls-5" d="M58.98,5.3l1.57-4.59-3.9,2.83-3.96-3.13,2.02,4.6-4.73,2.79,4.25-.28c-1.37.7-2.82,1.4-4.36,2.07h0c.35.59.9,1.35,1.74,2.04,1.05.86,2.13,1.27,2.87,1.47.27-2.13.72-3.73,1.14-4.84l.56,4.4,1.71-4.95,4.83.57-3.72-2.98Z"/>
        <path class="cls-2" d="M54.53,13.21l-.09-.02c-1.08-.29-2.05-.79-2.9-1.49-.7-.57-1.29-1.27-1.76-2.06v-.02s-.01-.07-.01-.07l.05-.02c1.35-.59,2.7-1.23,4.02-1.9l-4.19.28,4.96-2.92L52.49.16l4.16,3.29,4.05-2.94-1.64,4.77,3.89,3.11-5.04-.59-1.79,5.21-.56-4.41c-.47,1.34-.81,2.86-1.02,4.52v.09ZM49.96,9.63c.45.75,1.01,1.4,1.68,1.95.81.66,1.73,1.15,2.76,1.43.23-1.77.61-3.37,1.13-4.77l.11-.3.56,4.38,1.62-4.69,4.62.54-3.55-2.84,1.51-4.41-3.75,2.72-3.76-2.97,1.92,4.38-4.51,2.65,4.29-.28-.34.17c-1.4.72-2.84,1.4-4.29,2.04Z"/>
        <path class="cls-2" d="M54.13,24.65c-.78.24-1.58.44-2.38.59-.44.1-.89.17-1.34.24-.12.02-.24.04-.36.05-3.09.42-6.28.22-9.33-.39-1.45-.29-2.92-.6-4.33-1.04-.94-.29-1.84-.68-2.71-1.13.21-.15.41-.3.61-.44.93.46,1.89.83,2.9,1.12.89.25,1.79.47,2.69.66.44.09.87.18,1.31.25h0c1.63.29,3.27.48,4.91.52,2.67.07,5.3-.31,7.85-1.07,0,.02,0,.04.02.06.05.16.1.33.14.49h0s.02.06.02.09Z"/>
        <path class="cls-5" d="M42.12,23.19c.04.75-.54,1.4-1.3,1.43-.75.04-1.4-.54-1.43-1.3-.04-.75.54-1.4,1.3-1.43.75-.04,1.4.54,1.43,1.3Z"/>
        <path class="cls-2" d="M40.75,24.71c-.36,0-.7-.13-.97-.37-.29-.26-.45-.61-.47-1-.02-.39.11-.76.37-1.04.26-.29.61-.45,1-.47.79-.04,1.48.58,1.52,1.37.04.8-.58,1.48-1.37,1.52-.03,0-.05,0-.07,0ZM40.75,21.97s-.04,0-.06,0c-.34.02-.66.17-.89.42-.23.26-.35.59-.33.93.02.34.17.66.42.89.26.23.58.35.93.33.71-.04,1.26-.64,1.22-1.35-.03-.69-.61-1.23-1.29-1.23Z"/>
        <path class="cls-5" d="M52.66,26.47c.04.75-.54,1.4-1.3,1.43-.75.04-1.4-.54-1.43-1.3-.04-.75.54-1.4,1.3-1.43.75-.04,1.4.54,1.43,1.3Z"/>
        <path class="cls-2" d="M51.29,27.98c-.76,0-1.4-.6-1.44-1.37-.04-.8.58-1.48,1.37-1.52.79-.04,1.48.58,1.52,1.37.04.8-.58,1.48-1.37,1.52-.02,0-.05,0-.07,0ZM51.29,25.24s-.04,0-.07,0c-.71.04-1.26.64-1.22,1.35.04.71.65,1.26,1.35,1.22.71-.04,1.26-.64,1.22-1.35-.03-.69-.61-1.23-1.29-1.23Z"/>
        <path class="cls-2" d="M58.19,55.45c-3.02.11-6.04.12-9.05-.04-2.91-.16-5.8-.5-8.65-1.11-.42-.09-.84-.19-1.26-.29-.04,0-.07-.02-.11-.03-3.14-.78-6.16-1.93-9.1-3.3-2.96-1.38-5.83-3.07-8.49-4.98-.23-.16-.45-.33-.67-.49-.28-.21-.56-.42-.83-.64t0,0c-.78-.62-1.52-1.27-2.23-1.96-.8-.79-1.56-1.62-2.3-2.46.03-.02.05-.04.08-.05.15-.11.31-.22.47-.32.83.93,1.67,1.87,2.59,2.72,1.34,1.24,2.78,2.36,4.3,3.38,1.81,1.22,3.69,2.34,5.64,3.35h0c.2.11.41.22.61.32,3.62,1.82,7.45,3.24,11.41,4.1,3.44.75,6.94,1.09,10.45,1.19h0c.59.02,1.17.03,1.76.04,0,0,0,0,0,0,1.72.01,3.43-.02,5.14-.08.01.04.03.08.04.12.06.18.13.36.19.54Z"/>
        <path class="cls-5" d="M30.85,48.14c.04.75-.54,1.4-1.3,1.43-.75.04-1.4-.54-1.43-1.3-.04-.75.54-1.4,1.3-1.43.75-.04,1.4.54,1.43,1.3Z"/>
        <path class="cls-2" d="M29.49,49.65c-.76,0-1.4-.6-1.44-1.37-.02-.39.11-.76.37-1.04s.61-.45,1-.47c.79-.04,1.48.58,1.52,1.37.04.8-.58,1.48-1.37,1.52-.02,0-.05,0-.07,0ZM29.49,46.92s-.04,0-.07,0c-.34.02-.66.17-.89.42-.23.26-.35.59-.33.93.04.71.64,1.26,1.35,1.22.71-.04,1.26-.64,1.22-1.35-.03-.69-.61-1.23-1.29-1.23Z"/>
        <path class="cls-5" d="M40.9,55.22c.04.75-.54,1.4-1.3,1.43-.75.04-1.4-.54-1.43-1.3-.04-.75.54-1.4,1.3-1.43.75-.04,1.4.54,1.43,1.3Z"/>
        <path class="cls-2" d="M39.54,56.74c-.76,0-1.4-.6-1.44-1.37-.04-.8.58-1.48,1.37-1.52.79-.04,1.48.58,1.52,1.37.04.8-.58,1.48-1.37,1.52-.02,0-.05,0-.07,0ZM39.54,54s-.04,0-.07,0c-.71.04-1.26.64-1.22,1.35.04.71.64,1.26,1.35,1.22.71-.04,1.26-.64,1.22-1.35-.03-.69-.61-1.23-1.29-1.23Z"/>
        <path class="cls-5" d="M53.32,53.75c.04.75-.54,1.4-1.3,1.43-.75.04-1.4-.54-1.43-1.3-.04-.75.54-1.4,1.3-1.43.75-.04,1.4.54,1.43,1.3Z"/>
        <path class="cls-2" d="M51.95,55.26c-.36,0-.7-.13-.97-.37-.29-.26-.45-.61-.47-1-.04-.8.58-1.48,1.37-1.52.79-.04,1.48.58,1.52,1.37.04.8-.58,1.48-1.37,1.52-.02,0-.05,0-.07,0ZM51.95,52.53s-.04,0-.06,0c-.71.04-1.26.64-1.22,1.35.02.34.17.66.42.89.26.23.58.35.93.33.71-.04,1.26-.64,1.22-1.35-.03-.69-.61-1.23-1.29-1.23Z"/>
        <path class="cls-5" d="M21.04,45.84c.04.75-.54,1.4-1.3,1.43-.75.04-1.4-.54-1.43-1.3-.04-.75.54-1.4,1.3-1.43.75-.04,1.4.54,1.43,1.3Z"/>
        <path class="cls-2" d="M19.68,47.35c-.76,0-1.4-.6-1.44-1.37-.04-.8.58-1.48,1.37-1.52.79-.04,1.48.58,1.52,1.37.02.39-.11.76-.37,1.04-.26.29-.61.45-1,.47-.02,0-.05,0-.07,0ZM19.68,44.62s-.04,0-.07,0c-.71.04-1.26.64-1.22,1.35.04.71.64,1.26,1.35,1.22.34-.02.66-.17.89-.42.23-.26.35-.59.33-.93-.03-.69-.61-1.23-1.29-1.23Z"/>
        <path class="cls-2" d="M56.09,48.42c.06.24.12.48.18.72-1.45-.54-2.85-1.19-4.21-1.93-1.36-.73-2.69-1.52-3.98-2.36-.58-.37-1.15-.76-1.71-1.16-2.71-1.9-5.24-4.05-7.55-6.44-3.42-3.54-6.39-7.48-9.31-11.43.18-.12.36-.23.54-.35,0,0,0,0,.02-.01,1.45,1.96,2.91,3.91,4.44,5.8,1.74,2.15,3.51,4.27,5.47,6.21,1.91,1.89,3.97,3.65,6.13,5.24,2.23,1.64,4.64,3.08,7.11,4.35.85.44,1.72.82,2.6,1.17.09.04.17.07.26.1.2.08.39.15.59.22-.2,0-.4-.06-.57-.14Z"/>
        <path class="cls-5" d="M48.09,44.94c.04.75-.54,1.4-1.3,1.43-.75.04-1.4-.54-1.43-1.3-.04-.75.54-1.4,1.3-1.43.75-.04,1.4.54,1.43,1.3Z"/>
        <path class="cls-2" d="M46.72,46.46c-.36,0-.7-.13-.97-.37-.29-.26-.45-.61-.47-1-.04-.8.58-1.48,1.37-1.52.39-.02.76.11,1.04.37.29.26.45.61.47,1,.04.8-.58,1.48-1.37,1.52-.02,0-.05,0-.07,0ZM46.72,43.72s-.04,0-.07,0c-.71.04-1.26.64-1.22,1.35.02.34.17.66.42.89.26.23.59.35.93.33.71-.04,1.26-.64,1.22-1.35-.02-.34-.17-.66-.42-.89-.24-.22-.54-.33-.86-.33Z"/>
        <path class="cls-5" d="M58.06,47.12c.04.76-.54,1.4-1.3,1.44-.03,0-.07,0-.1,0h0c-.2,0-.4-.06-.57-.14-.1-.05-.19-.11-.28-.18-.28-.23-.46-.58-.48-.98-.02-.35.1-.67.3-.92.23-.3.59-.49,1-.51.75-.04,1.39.54,1.43,1.3Z"/>
        <path class="cls-2" d="M56.69,48.64s-.02,0-.03,0c-.21,0-.41-.06-.61-.15-.11-.05-.2-.12-.29-.19-.3-.25-.49-.63-.51-1.03-.02-.35.1-.7.32-.97.25-.32.64-.52,1.05-.54.8-.04,1.47.57,1.51,1.37.02.39-.11.76-.37,1.04-.26.29-.61.45-1,.47-.02,0-.05,0-.07,0ZM56.7,45.9s-.04,0-.06,0c-.37.02-.71.19-.94.48-.2.25-.3.55-.28.87.02.36.18.69.46.92.08.07.17.13.26.17.17.08.35.13.54.13.04,0,.07,0,.1,0,.34-.02.66-.17.89-.42.23-.26.35-.59.33-.93-.03-.69-.6-1.22-1.29-1.22Z"/>
        <path class="cls-2" d="M37.09,44.72s-.02,0-.03,0c-2.74.25-5.44-.94-7.31-2.91-.67-.7-1.32-1.6-1.78-2.57-.72-1.51-.96-3.22-.03-4.67.86-1.34,2.14-1.09,3.34-.36,1.06.65,2.08,1.67,2.7,2.3.54.54,1.12,1.04,1.8,1.4,1.1.58,2.36.67,3.47,1.19.22.1.46.23.7.4.69.46,1.38,1.13,1.58,1.85.56,2.15-2.9,3.23-4.44,3.38Z"/>
        <path class="cls-2" d="M36.35,44.83c-2.42,0-4.86-1.08-6.65-2.97-.73-.77-1.37-1.69-1.79-2.59-.59-1.25-1.08-3.09-.02-4.74.76-1.18,1.92-1.31,3.45-.38,1.08.66,2.1,1.69,2.71,2.31.44.44,1.05,1,1.78,1.38.58.3,1.21.48,1.83.64.55.15,1.11.3,1.64.55.25.12.49.25.71.4.4.27,1.36.99,1.61,1.9.14.54.05,1.05-.28,1.52-.85,1.21-3.04,1.84-4.22,1.95h-.02c-.24.02-.49.04-.73.04ZM37.06,44.64l.03.08v-.08s0,0,0,0c1.24-.11,3.34-.78,4.11-1.89.3-.43.39-.9.26-1.39-.23-.85-1.16-1.55-1.54-1.81-.21-.15-.44-.28-.69-.39-.51-.24-1.07-.39-1.61-.54-.62-.17-1.27-.34-1.86-.65-.75-.39-1.36-.96-1.82-1.41-.61-.61-1.62-1.64-2.68-2.29-1.46-.89-2.52-.78-3.23.33-1.02,1.59-.54,3.38.03,4.59.42.89,1.04,1.79,1.76,2.55,1.94,2.05,4.65,3.13,7.24,2.89Z"/>
        <path class="cls-8" d="M37.09,44.72s-.02,0-.03,0c-2.74.25-5.44-.94-7.31-2.91-.67-.7-1.32-1.6-1.78-2.57,1.68-.72,3.89-.56,5.83.61,1.95,1.17,3.13,3.05,3.28,4.88Z"/>
        <path class="cls-2" d="M36.35,44.83c-2.42,0-4.86-1.08-6.65-2.97-.73-.77-1.37-1.69-1.79-2.59l-.03-.07.07-.03c1.76-.76,4.02-.52,5.9.61,1.89,1.14,3.16,3.03,3.32,4.94v.07s-.08.02-.08.02c-.24.02-.49.03-.73.03ZM28.09,39.27c.42.86,1.03,1.74,1.73,2.48,1.93,2.03,4.61,3.11,7.19,2.89-.18-1.83-1.41-3.64-3.24-4.74-1.81-1.09-3.98-1.33-5.68-.63Z"/>
        <path class="cls-2" d="M37.56,27.15l-.45.84,3.76,2.03.45-.84-3.76-2.03Z"/>
        <path class="cls-2" d="M40.9,30.13l-3.9-2.1.53-.98,3.9,2.1-.53.98ZM37.21,27.96l3.62,1.96.38-.7-3.62-1.95-.38.7Z"/>
        <path class="cls-2" d="M55.3,36.72c-2.65,4.91-7.81,7.3-11.65,5.43-.08-.04-.16-.08-.23-.12-.25-.13-.49-.28-.71-.45h0c-.11-.08-.22-.17-.33-.26-.54-.45-1.01-1-1.38-1.61-1.68-2.73-1.66-6.83.33-10.53l13.98,7.54Z"/>
        <path class="cls-2" d="M46.49,42.87c-1,0-1.97-.21-2.88-.65-.09-.04-.16-.08-.24-.12-.24-.13-.49-.28-.72-.45-.12-.09-.23-.17-.33-.26-.55-.46-1.02-1.01-1.4-1.63-1.74-2.84-1.61-7,.33-10.61l.04-.07,14.12,7.61-.04.07c-2.06,3.81-5.58,6.11-8.88,6.11ZM41.36,29.29c-1.88,3.54-2,7.61-.3,10.38.37.61.83,1.15,1.37,1.59.1.08.2.17.32.25.23.17.47.31.7.44.07.04.15.08.22.11,1.85.9,4.05.84,6.21-.17,2.15-1,4.04-2.83,5.31-5.16l-13.84-7.46Z"/>
        <path class="cls-4" d="M49.99,33.85c-2.47,2.57-5.04,5.02-7.61,7.47-.54-.45-1.01-1-1.38-1.61,2.34-2.32,4.77-4.54,7.08-6.89l1.92,1.03Z"/>
        <path class="cls-2" d="M42.38,41.43l-.05-.04c-.55-.46-1.02-1.01-1.4-1.63l-.03-.05.04-.04c.99-.98,2-1.95,2.99-2.89,1.35-1.3,2.75-2.64,4.09-4l.04-.04,2.06,1.11-.07.07c-2.42,2.53-4.88,4.88-7.61,7.47l-.05.05ZM41.09,39.72c.36.57.79,1.07,1.28,1.5,2.68-2.55,5.1-4.86,7.49-7.34l-1.78-.96c-1.33,1.35-2.71,2.68-4.05,3.96-.97.93-1.97,1.89-2.94,2.85Z"/>
        <path class="cls-4" d="M51.25,34.53c-2.49,2.59-5.08,5.05-7.6,7.61-.08-.04-.16-.08-.23-.12-.25-.13-.49-.28-.71-.45,2.03-1.93,4.07-3.87,6.05-5.87.54-.55,1.08-1.1,1.61-1.66l.89.48Z"/>
        <path class="cls-2" d="M43.66,42.24l-.05-.03c-.09-.04-.16-.08-.24-.12-.24-.13-.49-.28-.72-.45l-.08-.06.07-.06c2.17-2.06,4.13-3.93,6.05-5.87.59-.6,1.12-1.14,1.61-1.66l.04-.04,1.03.56-.07.07c-1.44,1.49-2.93,2.97-4.38,4.4-1.06,1.05-2.16,2.13-3.23,3.22l-.04.04ZM42.83,41.57c.2.14.41.27.63.39.06.03.12.06.18.09,1.06-1.07,2.14-2.14,3.19-3.18,1.42-1.4,2.89-2.85,4.3-4.32l-.75-.4c-.48.5-.99,1.03-1.57,1.62-1.9,1.92-3.83,3.76-5.98,5.8Z"/>
        <path class="cls-2" d="M37.56,27.15c-2.7,5.01-8.02,7.39-11.89,5.31-.12-.06-.23-.13-.35-.2-.31-.19-.6-.41-.86-.65-.1-.09-.2-.19-.3-.29-.5-.51-.91-1.1-1.24-1.76-1.34-2.71-1.21-6.51.65-9.95l13.98,7.54Z"/>
        <path class="cls-2" d="M28.72,33.29c-1.08,0-2.12-.24-3.08-.76-.11-.06-.22-.12-.35-.21-.31-.19-.6-.41-.87-.66-.11-.09-.21-.19-.3-.29-.49-.5-.91-1.1-1.25-1.78-1.4-2.83-1.15-6.67.65-10.02l.04-.07,14.12,7.61-.04.07c-2.05,3.8-5.62,6.1-8.91,6.1ZM23.61,19.72c-1.75,3.29-1.99,7.04-.61,9.81.33.66.74,1.24,1.22,1.74.09.1.19.19.3.28.26.24.55.45.85.64.13.08.24.14.34.2,3.8,2.05,9.05-.29,11.74-5.21l-13.84-7.46Z"/>
        <path class="cls-4" d="M31.66,23.97c-2.43,2.53-4.96,4.95-7.49,7.35-.5-.51-.91-1.1-1.24-1.76,2.26-2.22,4.59-4.36,6.81-6.63l1.92,1.03Z"/>
        <path class="cls-2" d="M24.16,31.43l-.05-.06c-.49-.5-.91-1.1-1.25-1.78l-.03-.05.04-.04c.89-.88,1.81-1.76,2.7-2.61,1.36-1.3,2.77-2.65,4.11-4.02l.04-.04,2.06,1.11-.07.07c-2.45,2.56-5.05,5.04-7.5,7.35l-.06.05ZM23.03,29.58c.31.62.7,1.16,1.14,1.63,2.41-2.28,4.95-4.71,7.36-7.22l-1.78-.96c-1.33,1.36-2.73,2.69-4.07,3.98-.87.84-1.78,1.7-2.66,2.57Z"/>
        <path class="cls-4" d="M32.92,24.65c-2.49,2.59-5.08,5.05-7.6,7.61-.31-.19-.6-.41-.86-.65,2-1.9,4-3.81,5.96-5.78.54-.55,1.08-1.1,1.61-1.66l.89.48Z"/>
        <path class="cls-2" d="M25.34,32.36l-.05-.03c-.31-.19-.6-.42-.87-.66l-.06-.06.06-.06c1.92-1.82,3.97-3.77,5.95-5.78.59-.59,1.11-1.14,1.61-1.66l.04-.04,1.03.56-.07.07c-1.44,1.5-2.93,2.97-4.38,4.4-1.06,1.05-2.15,2.13-3.22,3.21l-.04.04ZM24.58,31.61c.23.2.47.39.73.55,1.05-1.07,2.13-2.13,3.17-3.16,1.42-1.4,2.89-2.86,4.31-4.32l-.75-.4c-.49.51-1,1.04-1.57,1.62-1.97,1.99-3.99,3.92-5.9,5.72Z"/>
        <path class="cls-5" d="M35.56,32.97c-.55.74-.35,1.83.45,2.42.8.6,1.9.48,2.45-.26.55-.74.35-1.83-.45-2.42-.8-.6-1.9-.48-2.45.26Z"/>
        <path class="cls-2" d="M37.14,35.86c-.4,0-.82-.13-1.18-.4-.4-.3-.67-.73-.76-1.21-.09-.48.02-.95.3-1.33.28-.38.7-.61,1.19-.66.48-.05.97.09,1.37.39.83.62,1.04,1.76.46,2.53-.33.44-.85.67-1.38.67ZM36.88,32.41c-.06,0-.12,0-.18,0-.44.05-.82.26-1.08.6-.25.34-.35.77-.27,1.2.08.44.33.83.7,1.11.76.57,1.82.46,2.34-.24.53-.7.33-1.74-.43-2.31-.32-.24-.7-.37-1.08-.37Z"/>
        <path class="cls-4" d="M37.24,32.97c.39.61-.56,1.22-.95.61-.39-.61.56-1.22.95-.61Z"/>
        <path class="cls-1" d="M34.59,0l-1.58.45,2.3,8.12,1.58-.45L34.59,0Z"/>
        <path class="cls-1" d="M15.26,12.14l-.96,1.34,6.32,4.52.96-1.34-6.32-4.52Z"/>
        <path class="cls-1" d="M24.06,3.95l-1.42.82,4.54,7.85,1.42-.82-4.54-7.85Z"/>
      </g>
    </g>
  </g>
</svg>