<?xml version="1.0" encoding="UTF-8"?>
<svg id="Layer_2" data-name="Layer 2" xmlns="http://www.w3.org/2000/svg" xmlns:xlink="http://www.w3.org/1999/xlink" viewBox="0 0 80 80">
  <defs>
    <style>
      .cls-1 {
        fill: #b1739a;
      }

      .cls-1, .cls-2, .cls-3, .cls-4, .cls-5, .cls-6, .cls-7, .cls-8, .cls-9, .cls-10, .cls-11 {
        stroke-width: 0px;
      }

      .cls-2 {
        fill: #51aea5;
      }

      .cls-3 {
        fill: none;
      }

      .cls-4 {
        fill: #f4f1e3;
      }

      .cls-5 {
        fill: #fff;
      }

      .cls-6 {
        fill: #df4f3e;
      }

      .cls-12 {
        clip-path: url(#clippath);
      }

      .cls-7 {
        fill: #e38b72;
      }

      .cls-8 {
        fill: #d45a41;
      }

      .cls-9 {
        fill: #241726;
      }

      .cls-10 {
        fill: #fbfcff;
      }

      .cls-11 {
        fill: #e1af01;
      }
    </style>
    <clipPath id="clippath">
      <rect class="cls-3" width="80" height="80"/>
    </clipPath>
  </defs>
  <g id="Layer_1-2" data-name="Layer 1">
    <g class="cls-12">
      <g>
        <path class="cls-4" d="M66.31,78.71H12.4s5.72-9.87,14.34-8.63c8.62,1.24,7.76,4.96,14.52,3.75,4.83-.87,3.67-2.43,9.34-4.46,7.97-2.84,15.7,9.34,15.7,9.34Z"/>
        <path class="cls-9" d="M72.79,18.95c-.05,0-.1-.02-.13-.07-.05-.07-.04-.18.04-.23.11-.09.8-.8,1.12-1.18-.38.05-1.08.19-1.72.32-.09.02-.18-.04-.19-.13-.02-.09.04-.18.13-.19,2.19-.47,2.22-.38,2.27-.22.08.27-1.39,1.66-1.4,1.67-.03.02-.06.03-.1.03Z"/>
        <path class="cls-1" d="M70.25,18.99s.16-2.56,1.49-2.09c1.85.64,2.7,5.41-.79,6.45-3.49,1.03-4.75-1.84-4.75-1.84l1.88-.43s-1.34-1.21-1.22-2.21c.13-.99,1.18-.12,1.18-.12,0,0-1.23-2.29-.21-2.36,1.02-.07,2.42,2.6,2.42,2.6Z"/>
        <path class="cls-9" d="M71.83,18.69c-.36,0-.7-.52-.8-.69-.05-.08-.02-.18.05-.23.08-.05.18-.02.23.05.14.22.35.47.48.52,0-.14-.09-.47-.22-.77-.04-.08,0-.18.09-.22.08-.04.18,0,.22.09.13.32.34.88.19,1.11-.05.07-.12.12-.21.12,0,0-.02,0-.02,0Z"/>
        <path class="cls-9" d="M68.67,21.07s-.07-.01-.1-.04c-.1-.08-.98-.83-.91-1.44.02-.2.14-.28.21-.31.2-.08.49.06.73.22-.11-.63-.05-.98.18-1.06.1-.03.39-.13,1.48,1.57.05.08.03.18-.05.23-.08.05-.18.03-.23-.05-.39-.61-.91-1.3-1.11-1.41-.03.12.03.62.14,1.09.02.07-.01.14-.07.18-.06.04-.14.03-.19-.02-.29-.25-.66-.47-.76-.45,0,0,0,.01,0,.04-.03.33.47.89.8,1.16.07.06.08.16.02.23-.03.04-.08.06-.13.06Z"/>
        <path class="cls-9" d="M70.21,22.75c-.5,0-.87-.1-.9-.11-.09-.02-.14-.11-.11-.2.02-.09.11-.14.2-.12.01,0,1.29.34,2.27-.3.59-.38.96-1.05,1.1-1.97.01-.09.1-.15.19-.14.09.01.15.1.14.19-.16,1.02-.58,1.76-1.25,2.19-.54.35-1.15.44-1.63.44Z"/>
        <path class="cls-9" d="M1.5,40.46s-.07,0-.09-.03c-.02-.01-1.48-1.4-1.4-1.67.05-.16.08-.25,2.27.22.09.02.15.11.13.19-.02.09-.11.14-.19.13-.64-.14-1.34-.27-1.72-.32.32.38,1.01,1.1,1.12,1.18.07.06.08.16.03.23-.03.04-.08.06-.13.06Z"/>
        <path class="cls-1" d="M4.03,40.5s-.16-2.56-1.49-2.09c-1.85.64-2.7,5.41.79,6.45,3.49,1.03,4.75-1.84,4.75-1.84l-1.88-.43s1.34-1.21,1.22-2.21c-.13-.99-1.18-.12-1.18-.12,0,0,1.23-2.29.21-2.36-1.02-.07-2.42,2.6-2.42,2.6Z"/>
        <path class="cls-9" d="M2.46,40.2s-.02,0-.02,0c-.09,0-.16-.05-.21-.12-.14-.24.06-.8.19-1.12.04-.08.13-.12.22-.09.08.04.12.13.09.22-.13.3-.22.64-.22.77.13-.05.34-.29.48-.52.05-.08.15-.1.23-.05.08.05.1.15.05.23-.1.16-.45.69-.8.69Z"/>
        <path class="cls-9" d="M5.61,42.58s-.09-.02-.13-.06c-.06-.07-.05-.17.02-.23.33-.27.83-.83.8-1.16,0-.03,0-.04,0-.04-.09-.02-.45.19-.75.45-.05.05-.13.05-.19.02-.06-.04-.09-.11-.07-.18.11-.45.17-.92.13-1.08-.21.14-.71.8-1.09,1.4-.05.08-.15.1-.23.05-.08-.05-.1-.15-.05-.23,1.09-1.69,1.38-1.6,1.48-1.57.23.07.29.43.18,1.06.24-.16.53-.3.74-.22.07.03.19.1.21.31.06.61-.81,1.36-.91,1.44-.03.03-.07.04-.1.04Z"/>
        <path class="cls-9" d="M4.08,44.26c-.48,0-1.09-.09-1.63-.44-.67-.44-1.09-1.17-1.25-2.19-.01-.09.05-.17.14-.19.09-.01.17.05.19.14.14.92.51,1.58,1.1,1.97.98.64,2.26.3,2.27.3.09-.02.18.03.2.12.02.09-.03.18-.11.2-.03,0-.4.11-.9.11Z"/>
        <path class="cls-2" d="M9.51,17.75s1.01-3,1.44-2.69c.43.31.32.83.32.83,0,0,1.26-1.63,1.94-1.23.68.4.02,1.21.02,1.21,0,0,2.11-1.5,2.45-.71.33.79-1.57,2.39-1.57,2.39,0,0,1.1-.68,1.33.24.23.92-1.62,1.15-1.73,1.14-.11,0,.6-.03.39.58-.22.61-6.03.93-4.59-1.76Z"/>
        <path class="cls-2" d="M6.84,21.05s-2.83,1.41-2.92.88c-.09-.53.36-.82.36-.82,0,0-2.04.26-2.24-.5-.2-.76.84-.87.84-.87,0,0-2.56-.43-2.24-1.22.32-.79,2.8-.58,2.8-.58,0,0-1.26-.29-.77-1.11.49-.81,1.96.33,2.04.41.08.08-.45-.4.13-.68.58-.28,4.92,3.6,2,4.49Z"/>
        <path class="cls-2" d="M10.23,20.58s2.64,1.75,2.23,2.09c-.41.34-.89.1-.89.1,0,0,1.25,1.64.69,2.19-.56.56-1.17-.29-1.17-.29,0,0,.91,2.43.06,2.55-.85.12-1.91-2.13-1.91-2.13,0,0,.38,1.24-.57,1.22-.95-.02-.69-1.86-.66-1.97.03-.11-.12.59-.66.23-.54-.37.65-6.06,2.88-3.98Z"/>
        <path class="cls-8" d="M10.94,18.71c-.31-.06-.61-.05-.89.03.12-.97-.52-1.89-1.49-2.09-1.02-.21-2.03.44-2.24,1.47-.13.62.06,1.22.45,1.66-.68.17-1.24.71-1.4,1.45-.21,1.02.44,2.03,1.47,2.24,1.02.21,2.03-.44,2.24-1.47.01-.07.02-.14.03-.21.26.31.63.54,1.06.63,1.02.21,2.03-.44,2.24-1.47.21-1.02-.44-2.03-1.47-2.24ZM8.68,20.32s0,.04,0,.06c-.01-.02-.03-.03-.04-.05.02,0,.03,0,.05-.01Z"/>
        <path class="cls-9" d="M6.24,19.82s-.06,0-.09-.03c-1.14-.78-3.27-.68-3.29-.68-.09.01-.17-.07-.17-.16,0-.09.07-.17.16-.17.09,0,2.26-.1,3.49.74.07.05.09.15.04.23-.03.05-.08.07-.14.07Z"/>
        <path class="cls-9" d="M10.94,18.87c-.08,0-.15-.05-.16-.13-.02-.09.04-.18.13-.19.7-.14,1.91-1.67,2.32-2.24.05-.07.15-.09.23-.04.07.05.09.15.04.23-.16.22-1.57,2.19-2.52,2.38-.01,0-.02,0-.03,0Z"/>
        <path class="cls-9" d="M10,25.29c-.09,0-.16-.07-.16-.16,0-.57-.15-2.12-.67-2.43-.08-.05-.1-.15-.06-.22.05-.08.15-.1.23-.06.77.45.82,2.48.83,2.71,0,.09-.07.17-.16.17,0,0,0,0,0,0Z"/>
        <path class="cls-9" d="M10.08,18.73c-.09-.03-.18.01-.21.1,0,.01-.39,1.03-1.2,1.18-.03,0-.05.02-.07.04-.04-.03-.08-.06-.13-.08-.64-.36-1.18-.48-1.61-.36-.37.11-.51.36-.53.39-.04.08-.01.18.07.22.08.04.18.01.22-.06,0,0,.1-.17.34-.23.23-.06.66-.06,1.35.33.87.49.62,1.65.61,1.7-.02.09.04.18.12.2.01,0,.02,0,.04,0,.07,0,.14-.05.16-.13.01-.05.23-1.05-.36-1.73.89-.27,1.29-1.31,1.31-1.36.03-.08-.01-.18-.1-.21Z"/>
        <path class="cls-10" d="M9.41,18.26c-.07,0-.13-.04-.16-.11-.22-.67-.99-.61-.99-.61-.09,0-.17-.06-.18-.15,0-.09.06-.17.15-.18.36-.03,1.09.11,1.33.84.03.09-.02.18-.1.21-.02,0-.03,0-.05,0Z"/>
        <path class="cls-10" d="M11.89,20.68c-.07,0-.14-.05-.16-.12-.14-.49-.85-.79-.86-.8-.08-.03-.12-.13-.09-.21.03-.08.13-.12.21-.09.04.01.87.36,1.05,1.01.02.09-.03.18-.11.2-.01,0-.03,0-.04,0Z"/>
        <path class="cls-10" d="M8.43,21.64c-.09,0-.16-.07-.16-.16,0-.11-.04-.2-.12-.27-.25-.24-.83-.27-1.04-.26-.09,0-.17-.07-.17-.16,0-.09.07-.17.16-.17.04,0,.87-.03,1.28.35.15.14.22.31.22.51,0,.09-.07.16-.16.17,0,0,0,0,0,0Z"/>
        <path class="cls-2" d="M70.4,56.23s-2.75-1.55-2.37-1.92c.38-.37.88-.16.88-.16,0,0-1.36-1.54-.85-2.14.52-.6,1.19.21,1.19.21,0,0-1.08-2.36-.24-2.54.83-.18,2.06,1.99,2.06,1.99,0,0-.46-1.21.49-1.26.95-.05.82,1.8.8,1.92-.02.11.08-.6.64-.27.56.33-.22,6.1-2.59,4.18Z"/>
        <path class="cls-2" d="M73.14,59.46s.85,3.04.32,3.03c-.53-.01-.74-.5-.74-.5,0,0-.12,2.06-.91,2.11-.79.06-.69-.99-.69-.99,0,0-.9,2.43-1.62,1.97-.72-.46-.05-2.86-.05-2.86,0,0-.52,1.18-1.23.55-.71-.63.69-1.86.79-1.92.1-.06-.48.37-.65-.26-.17-.63,4.46-4.16,4.78-1.13Z"/>
        <path class="cls-2" d="M73.31,56.05s2.21-2.26,2.46-1.8c.26.47-.07.89-.07.89,0,0,1.84-.92,2.28-.27.44.65-.51,1.09-.51,1.09,0,0,2.56-.44,2.52.42-.04.85-2.45,1.48-2.45,1.48,0,0,1.29-.14,1.09.79-.19.93-1.96.33-2.06.28-.1-.05.56.23.1.69-.46.46-5.84-1.77-3.37-3.57Z"/>
        <path class="cls-8" d="M74.49,57.44c-.07-.03-.13-.05-.2-.07.36-.2.65-.51.82-.92.4-.97-.06-2.08-1.02-2.48-.97-.4-2.08.06-2.48,1.02-.12.29-.16.59-.14.88-.93-.3-1.95.15-2.34,1.07-.4.97.06,2.08,1.02,2.48.58.24,1.21.17,1.71-.13.04.7.47,1.35,1.16,1.64.97.4,2.08-.06,2.48-1.02.4-.97-.06-2.08-1.02-2.48ZM72.77,57.52s.04.01.06.02c-.02.01-.04.02-.05.03,0-.02,0-.03,0-.05Z"/>
        <path class="cls-9" d="M70.16,63.1s-.02,0-.02,0c-.09-.01-.15-.1-.14-.19.01-.09.32-2.24,1.38-3.3.06-.06.17-.06.23,0,.06.06.06.17,0,.23-.98.97-1.28,3.09-1.29,3.11-.01.08-.08.14-.16.14Z"/>
        <path class="cls-9" d="M71.61,55.16c-.09,0-.16-.07-.16-.16,0-.71-1.28-2.19-1.77-2.69-.06-.07-.06-.17,0-.23.07-.06.17-.06.23,0,.19.2,1.86,1.95,1.86,2.92,0,.09-.07.16-.16.16h0Z"/>
        <path class="cls-9" d="M75.07,57.53s-.08-.01-.11-.04c-.07-.06-.07-.16-.01-.23.59-.67,2.59-.35,2.81-.31.09.02.15.1.13.19-.02.09-.1.15-.19.13-.56-.1-2.11-.25-2.51.2-.03.04-.08.06-.12.06Z"/>
        <path class="cls-9" d="M74.55,57.29s-.99-.42-1.77.03c-.1-.93-1.05-1.51-1.09-1.54-.08-.05-.18-.02-.23.06-.05.08-.02.18.06.23,0,0,.93.57.94,1.4,0,.03,0,.05.02.08-.04.04-.07.07-.11.11-.48.56-.7,1.07-.65,1.52.04.39.26.57.29.59.03.02.07.04.1.04.05,0,.09-.02.13-.06.06-.07.05-.17-.02-.23,0,0-.14-.12-.17-.38-.02-.24.06-.66.58-1.26.65-.77,1.74-.3,1.79-.28.08.04.18,0,.22-.08.04-.08,0-.18-.08-.22Z"/>
        <path class="cls-10" d="M69.79,57.56s-.01,0-.02,0c-.09,0-.16-.09-.15-.18.04-.36.31-1.05,1.07-1.15.09-.01.17.05.18.14.01.09-.05.17-.14.18-.69.09-.78.85-.78.86,0,.08-.08.15-.16.15Z"/>
        <path class="cls-10" d="M72.49,55.34s-.06,0-.09-.03c-.08-.05-.1-.15-.05-.23.02-.03.52-.79,1.19-.84.09,0,.17.06.18.15,0,.09-.06.17-.15.18-.51.04-.94.69-.94.7-.03.05-.08.07-.14.07Z"/>
        <path class="cls-10" d="M72.93,59.32s-.02,0-.02,0c-.09-.01-.15-.1-.14-.19,0-.03.13-.86.58-1.19.16-.12.34-.16.54-.12.09.02.15.1.13.19-.02.09-.1.15-.19.13-.11-.02-.2,0-.29.07-.28.2-.42.77-.45.97-.01.08-.08.14-.16.14Z"/>
        <path class="cls-9" d="M26.85,72.16s-.09-.02-.12-.06c-.02-.02-.5-.54-1.24-.18-.08.04-.18,0-.22-.08-.04-.08,0-.18.08-.22.78-.37,1.41.01,1.63.26.06.07.05.17-.01.23-.03.03-.07.04-.11.04Z"/>
        <path class="cls-9" d="M25.56,73.12s-.09-.02-.12-.06c-.02-.02-.5-.54-1.24-.18-.08.04-.18,0-.22-.08-.04-.08,0-.18.08-.22.78-.37,1.41.01,1.63.26.06.07.05.17-.01.23-.03.03-.07.04-.11.04Z"/>
        <path class="cls-9" d="M23.38,72.94s-.09-.02-.12-.06c-.02-.02-.5-.54-1.24-.18-.08.04-.18,0-.22-.08-.04-.08,0-.18.08-.22.78-.37,1.41.01,1.63.26.06.07.05.17-.01.23-.03.03-.07.04-.11.04Z"/>
        <path class="cls-9" d="M21.19,72.05s-.1-.02-.13-.06c-.06-.07-.05-.17.02-.23.68-.55,1.37-.32,1.64-.12.07.05.09.16.03.23-.05.07-.16.09-.23.04-.03-.02-.59-.41-1.24.11-.03.02-.07.04-.1.04Z"/>
        <path class="cls-9" d="M23.56,71.87c-.05,0-.1-.02-.13-.07-.05-.07-.04-.18.04-.23.7-.52,1.38-.26,1.64-.05.07.06.08.16.02.23-.06.07-.16.08-.23.03-.02-.02-.57-.44-1.24.06-.03.02-.06.03-.1.03Z"/>
        <path class="cls-9" d="M20.7,73.81c-.05,0-.1-.02-.13-.07-.05-.07-.04-.18.04-.23.71-.52,1.38-.26,1.64-.05.07.06.08.16.02.23-.06.07-.16.08-.23.03-.02-.02-.57-.44-1.24.06-.03.02-.06.03-.1.03Z"/>
        <path class="cls-9" d="M19.3,73.05s-.08-.02-.12-.05c-.06-.06-.06-.17,0-.23.62-.62,1.33-.47,1.61-.3.08.05.1.15.06.22-.05.08-.15.1-.22.06-.03-.02-.62-.34-1.21.25-.03.03-.07.05-.12.05Z"/>
        <path class="cls-9" d="M57.4,71.56s-.09-.02-.12-.06c-.02-.02-.5-.54-1.24-.18-.08.04-.18,0-.22-.08-.04-.08,0-.18.08-.22.78-.37,1.41.01,1.63.26.06.07.05.17-.01.23-.03.03-.07.04-.11.04Z"/>
        <path class="cls-9" d="M56.11,72.52s-.09-.02-.12-.06c-.02-.02-.5-.54-1.24-.18-.08.04-.18,0-.22-.08-.04-.08,0-.18.08-.22.78-.37,1.41.01,1.63.26.06.07.05.17-.01.23-.03.03-.07.04-.11.04Z"/>
        <path class="cls-9" d="M53.93,72.34s-.09-.02-.12-.06c-.02-.02-.5-.54-1.24-.18-.08.04-.18,0-.22-.08-.04-.08,0-.18.08-.22.78-.37,1.41.01,1.63.26.06.07.05.17-.01.23-.03.03-.07.04-.11.04Z"/>
        <path class="cls-9" d="M51.74,71.46s-.1-.02-.13-.06c-.06-.07-.05-.17.03-.23.68-.55,1.37-.32,1.64-.12.07.05.09.16.03.23-.05.07-.16.09-.23.04-.03-.02-.59-.41-1.24.11-.03.02-.07.04-.1.04Z"/>
        <path class="cls-9" d="M54.11,71.27c-.05,0-.1-.02-.13-.07-.05-.07-.04-.18.04-.23.71-.52,1.38-.26,1.64-.05.07.06.08.16.02.23-.06.07-.16.08-.23.03-.02-.02-.57-.44-1.24.06-.03.02-.06.03-.1.03Z"/>
        <path class="cls-9" d="M51.25,73.21c-.05,0-.1-.02-.13-.07-.05-.07-.04-.18.04-.23.7-.52,1.38-.26,1.64-.05.07.06.08.16.02.23-.06.07-.16.08-.23.03-.02-.02-.57-.44-1.24.06-.03.02-.06.03-.1.03Z"/>
        <path class="cls-9" d="M49.86,72.45s-.08-.02-.12-.05c-.06-.06-.06-.17,0-.23.62-.62,1.33-.47,1.61-.3.08.05.1.15.06.22-.05.08-.15.1-.22.06-.03-.01-.62-.34-1.21.25-.03.03-.07.05-.12.05Z"/>
        <path class="cls-9" d="M5.67,67.46c-.13,0-.26,0-.38-.03-.09-.01-.15-.1-.14-.19.01-.09.1-.15.19-.14.2.03.41.03.61,0,.09,0,.17.05.18.14.01.09-.05.17-.14.18-.1.01-.21.02-.31.02ZM6.6,67.29c-.07,0-.13-.04-.15-.11-.03-.09.01-.18.1-.21.19-.07.38-.15.57-.26.08-.04.18-.02.22.06.05.08.02.18-.06.22-.21.12-.41.21-.62.29-.02,0-.04,0-.05,0ZM4.68,67.25s-.04,0-.07-.01c-.21-.09-.41-.21-.6-.35-.07-.05-.09-.16-.03-.23.05-.07.16-.09.23-.03.17.13.35.23.53.31.08.04.12.13.08.22-.03.06-.09.1-.15.1ZM7.74,66.65s-.1-.02-.13-.06c-.06-.07-.04-.17.03-.23.16-.13.32-.27.47-.43.06-.07.17-.07.23,0,.07.06.07.17,0,.23-.16.16-.33.32-.5.46-.03.02-.07.04-.1.04ZM3.63,66.48s-.09-.02-.12-.05c-.15-.16-.29-.33-.43-.53-.05-.07-.04-.18.04-.23.07-.05.18-.04.23.04.13.18.26.35.4.49.06.07.06.17,0,.23-.03.03-.07.04-.11.04ZM8.65,65.71s-.07-.01-.1-.03c-.07-.05-.09-.16-.03-.23.13-.17.25-.35.35-.53.04-.08.14-.11.22-.06.08.05.11.15.06.22-.11.19-.24.38-.37.57-.03.04-.08.07-.13.07ZM2.86,65.42c-.06,0-.11-.03-.14-.08-.11-.2-.21-.41-.28-.62-.03-.09.01-.18.1-.21.09-.03.18.01.21.1.07.19.16.39.26.57.04.08.02.18-.06.22-.03.01-.05.02-.08.02ZM2.42,64.19c-.08,0-.15-.06-.16-.14-.04-.21-.06-.43-.06-.64l.16-.04.16.02c0,.21.02.41.05.61.02.09-.04.17-.13.19,0,0-.02,0-.03,0ZM2.43,62.89s-.02,0-.03,0c-.09-.02-.15-.1-.13-.19.04-.22.1-.44.18-.66.03-.09.13-.13.21-.1.09.03.13.13.1.21-.07.2-.13.4-.17.61-.02.08-.08.13-.16.13ZM2.88,61.66s-.05,0-.08-.02c-.08-.04-.11-.14-.06-.22.11-.2.23-.39.37-.57.05-.07.16-.09.23-.03.07.05.09.16.03.23-.13.17-.24.35-.34.53-.03.05-.09.08-.14.08ZM6.14,61.32s0,0-.01,0c-.22-.01-.44-.05-.68-.1-.09-.02-.14-.11-.12-.2.02-.09.11-.14.2-.12.21.05.42.08.62.1.09,0,.16.08.15.17,0,.09-.08.15-.16.15ZM6.79,61.28c-.07,0-.14-.05-.16-.13-.02-.09.03-.18.12-.2.21-.05.38-.14.46-.26.05-.07.16-.09.23-.03.07.05.09.16.03.23-.14.18-.36.31-.65.38-.01,0-.03,0-.04,0ZM4.87,61.02s-.04,0-.06-.01c-.21-.08-.42-.18-.61-.3-.08-.04-.11-.15-.06-.22.04-.08.14-.11.22-.06.18.1.37.2.57.28.08.03.12.13.09.21-.03.06-.09.1-.15.1ZM3.66,60.61s-.08-.02-.11-.05c-.06-.06-.07-.17,0-.23.01-.01.02-.02.03-.03-.16-.13-.32-.27-.45-.42-.06-.07-.06-.17,0-.23.07-.06.17-.06.23,0,.14.15.29.29.46.42.08-.07.15-.13.23-.19.07-.06.17-.04.23.03.06.07.04.17-.03.23-.17.13-.32.27-.47.42-.03.03-.07.05-.12.05ZM7.44,60.33c-.07,0-.14-.05-.16-.12-.02-.08-.06-.16-.1-.25-.05-.1-.11-.18-.17-.26-.06-.07-.06-.17.01-.23.07-.06.17-.06.23.01.09.1.16.21.22.33.05.11.1.21.12.31.02.09-.03.18-.11.2-.01,0-.03,0-.04,0ZM4.7,59.8c-.06,0-.11-.03-.14-.08-.05-.08-.02-.18.06-.22.21-.12.41-.22.62-.29.09-.03.18.01.21.1.03.09-.01.18-.1.21-.19.07-.38.16-.57.27-.03.02-.05.02-.08.02ZM2.84,59.42c-.05,0-.11-.03-.14-.07-.13-.19-.23-.4-.32-.61-.04-.08,0-.18.09-.21.08-.03.18,0,.21.09.08.19.18.38.29.55.05.08.03.18-.05.23-.03.02-.06.03-.09.03ZM6.58,59.42s-.03,0-.05,0c-.17-.05-.37-.07-.59-.04-.09,0-.17-.06-.18-.15,0-.09.06-.17.15-.18.26-.03.5,0,.71.05.09.03.14.12.11.2-.02.07-.09.12-.16.12ZM2.34,58.21c-.08,0-.14-.05-.16-.13-.05-.22-.07-.45-.08-.68,0-.09.07-.17.16-.17.09,0,.17.07.17.16,0,.21.03.42.07.62.02.09-.04.18-.13.19-.01,0-.02,0-.03,0ZM2.27,56.91s0,0,0,0c-.09,0-.16-.08-.15-.17.01-.23.04-.46.07-.67.01-.09.1-.15.19-.14.09.01.15.1.14.19-.03.2-.05.42-.07.64,0,.09-.08.16-.16.16ZM2.47,55.61s-.03,0-.04,0c-.09-.02-.14-.12-.11-.2.06-.23.14-.44.23-.64.04-.08.14-.12.22-.08.08.04.12.14.08.22-.08.18-.16.38-.22.59-.02.07-.09.12-.16.12ZM4.4,54.52s-.01,0-.02,0c-.23-.03-.46-.08-.68-.16-.09-.03-.13-.13-.1-.21.03-.09.13-.13.21-.1.19.07.39.12.6.14.09.01.16.09.14.18,0,.08-.08.15-.16.15ZM5.06,54.51c-.08,0-.15-.06-.16-.14-.01-.09.05-.17.14-.19.22-.03.42-.1.55-.19.08-.05.18-.03.23.05.05.08.03.18-.05.23-.18.11-.41.2-.68.24,0,0-.02,0-.02,0ZM3.02,54.43s-.07,0-.09-.03c-.07-.05-.09-.16-.04-.23.04-.06.08-.12.13-.17-.16-.12-.31-.25-.45-.41-.06-.07-.06-.17.01-.23.07-.06.17-.06.23.01.13.14.28.27.43.38.04-.03.07-.07.11-.1.07-.06.17-.05.23.01.06.07.05.17-.01.23-.15.13-.29.29-.41.46-.03.05-.08.07-.13.07ZM5.83,53.76s-.1-.02-.13-.06c-.01-.01-.02-.03-.04-.04-.11-.11-.26-.19-.43-.24-.09-.02-.14-.11-.11-.2.02-.09.11-.14.2-.11.22.06.42.17.57.31.03.03.05.05.07.08.06.07.04.17-.03.23-.03.02-.07.04-.1.04ZM4,53.57c-.06,0-.12-.03-.15-.09-.04-.08,0-.18.08-.22.22-.11.45-.18.68-.21.09-.01.17.05.18.14.01.09-.05.17-.14.18-.19.03-.39.08-.57.18-.02.01-.05.02-.07.02ZM2.3,53.11c-.06,0-.11-.03-.14-.08-.11-.19-.21-.4-.29-.62-.03-.08.01-.18.1-.21.09-.03.18.01.21.1.07.2.16.39.26.57.05.08.02.18-.06.22-.03.02-.05.02-.08.02ZM1.85,51.89c-.08,0-.14-.05-.16-.13-.01-.06-.03-.12-.04-.19-.03-.16-.05-.32-.07-.48-.01-.09.05-.17.14-.18.09,0,.17.05.18.14.02.15.04.3.07.46.01.06.02.12.04.18.02.09-.04.18-.13.19-.01,0-.02,0-.03,0ZM1.7,50.59c-.09,0-.16-.07-.16-.16v-.05c0-.22.01-.43.04-.63.01-.09.09-.15.18-.14.09.01.15.09.14.18-.02.19-.04.39-.04.59v.04c0,.09-.07.16-.16.17h0ZM1.87,49.29s-.03,0-.05,0c-.09-.03-.14-.12-.11-.2.07-.22.15-.44.26-.64.04-.08.14-.11.22-.07.08.04.11.14.07.22-.09.18-.17.37-.23.58-.02.07-.09.12-.16.12ZM2.48,48.14s-.07-.01-.11-.04c-.07-.06-.08-.16-.02-.23.15-.18.31-.34.5-.48.07-.06.17-.04.23.03.06.07.04.17-.03.23-.16.13-.31.27-.45.43-.03.04-.08.06-.13.06ZM3.51,47.33c-.06,0-.12-.03-.15-.09-.04-.08,0-.18.07-.22.37-.18.64-.24.66-.25.09-.02.18.04.19.13.02.09-.04.18-.13.19,0,0-.25.05-.57.22-.02.01-.05.02-.07.02Z"/>
        <path class="cls-9" d="M73.1,47.74s0,0-.01,0c-.23-.02-.46-.07-.68-.15-.09-.03-.13-.12-.1-.21.03-.09.12-.13.21-.1.2.07.4.11.6.13.09,0,.16.09.15.18,0,.09-.08.15-.16.15ZM73.75,47.71c-.08,0-.15-.06-.16-.13-.02-.09.04-.17.13-.19.2-.04.39-.1.59-.19.08-.04.18,0,.22.08.04.08,0,.18-.08.22-.22.1-.44.17-.66.21-.01,0-.02,0-.03,0ZM71.87,47.32s-.06,0-.09-.02c-.19-.12-.37-.26-.55-.41-.07-.06-.07-.16-.01-.23.06-.07.16-.07.23-.01.16.14.33.27.5.38.08.05.1.15.05.23-.03.05-.08.08-.14.08ZM74.94,47.18c-.05,0-.1-.02-.13-.07-.05-.07-.04-.18.04-.23.16-.12.32-.25.48-.41.06-.06.17-.06.23,0,.06.06.06.17,0,.23-.17.17-.34.32-.52.44-.03.02-.06.03-.1.03ZM70.9,46.44s-.1-.02-.13-.06c-.15-.19-.27-.38-.37-.58-.04-.08-.01-.18.07-.22.08-.04.18-.01.22.07.09.18.21.35.34.53.06.07.04.17-.03.23-.03.02-.07.03-.1.03ZM75.88,46.27s-.07-.01-.1-.04c-.07-.06-.08-.16-.03-.23.08-.1.16-.21.25-.33.05-.06.09-.13.13-.19.05-.08.15-.1.23-.05.08.05.1.15.05.23-.04.07-.09.14-.14.2-.09.12-.17.23-.26.34-.03.04-.08.06-.13.06ZM76.57,45.16s-.04,0-.06-.01c-.08-.03-.12-.13-.09-.21.08-.2.14-.4.18-.59.02-.09.1-.15.19-.13.09.02.15.1.13.19-.04.22-.11.44-.2.66-.03.06-.09.1-.15.1ZM76.81,43.87c-.09,0-.16-.07-.16-.16-.01-.2-.05-.41-.1-.61-.03-.09.02-.18.11-.2.09-.02.18.02.2.11.07.22.1.45.12.68,0,.09-.07.17-.16.17,0,0,0,0,0,0ZM76.45,42.62c-.06,0-.12-.03-.15-.09-.1-.18-.21-.35-.34-.52-.06-.07-.04-.17.03-.23.07-.06.17-.04.23.03.15.18.27.38.38.57.04.08.01.18-.07.22-.02.01-.05.02-.08.02ZM73.26,41.87c-.09,0-.16-.07-.16-.16,0-.09.07-.17.16-.17.18,0,.39-.04.6-.11.09-.03.18.02.21.11.03.09-.02.18-.11.21-.24.08-.48.12-.69.12,0,0,0,0,0,0ZM72.63,41.71s-.06,0-.09-.03c-.21-.14-.32-.36-.32-.62,0-.03,0-.07,0-.1,0-.09.09-.16.18-.15.09,0,.16.09.15.18,0,.02,0,.04,0,.07,0,.15.06.27.18.35.07.05.09.15.04.23-.03.05-.08.07-.14.07ZM75.64,41.59s-.08-.01-.11-.04c-.14-.13-.29-.25-.44-.36-.17.11-.34.21-.5.3-.08.04-.18,0-.22-.07-.04-.08-.01-.18.07-.22.18-.09.36-.2.54-.33.05-.04.11-.04.17-.01.03,0,.06.01.08.03.19.13.36.28.53.43.07.06.07.17,0,.23-.03.03-.08.05-.12.05ZM74.57,40.84s-.05,0-.08-.02c-.19-.1-.39-.18-.58-.24-.09-.03-.13-.12-.11-.21.03-.09.12-.13.21-.11.21.07.42.16.63.26.08.04.11.14.07.22-.03.06-.09.09-.15.09ZM75.59,40.75s-.09-.02-.12-.06c-.06-.07-.05-.17.02-.23.16-.14.31-.29.46-.44.06-.07.17-.07.23,0,.07.06.07.17,0,.23-.16.16-.32.32-.48.46-.03.03-.07.04-.11.04ZM72.69,40.58c-.05,0-.11-.03-.14-.08-.05-.08-.03-.18.05-.23.16-.1.38-.16.63-.16.03,0,.07,0,.1,0,.09,0,.16.08.16.17,0,.09-.08.16-.17.16-.03,0-.06,0-.09,0-.19,0-.34.04-.45.11-.03.02-.06.03-.09.03ZM76.5,39.81s-.07-.01-.1-.04c-.07-.06-.08-.16-.02-.23.13-.16.26-.34.39-.51.05-.07.16-.09.23-.04.07.05.09.15.04.23-.13.18-.27.36-.4.53-.03.04-.08.06-.13.06ZM77.25,38.74s-.06,0-.09-.02c-.08-.05-.1-.15-.05-.23.08-.13.16-.26.24-.4.03-.05.06-.1.08-.15.04-.08.14-.11.22-.07.08.04.11.14.07.22-.03.06-.06.11-.09.17-.08.14-.16.28-.24.42-.03.05-.08.08-.14.08ZM77.83,37.56s-.03,0-.05,0c-.09-.03-.14-.12-.11-.21.06-.2.1-.41.12-.61,0-.09.09-.15.18-.15.09,0,.16.09.15.18-.02.22-.07.45-.14.67-.02.07-.09.12-.16.12ZM77.95,36.26c-.08,0-.15-.06-.16-.15-.02-.2-.07-.41-.14-.6-.03-.09.02-.18.1-.21.09-.03.18.02.21.1.08.22.13.45.15.67.01.09-.05.17-.14.18,0,0-.01,0-.02,0ZM77.54,35.02c-.06,0-.11-.03-.14-.08-.1-.18-.22-.35-.35-.52-.06-.07-.04-.17.03-.23.07-.06.17-.05.23.03.15.18.27.37.38.56.04.08.02.18-.06.22-.03.01-.05.02-.08.02ZM76.72,34s-.08-.02-.11-.05c-.15-.14-.31-.28-.49-.41-.07-.05-.09-.16-.03-.23.05-.07.16-.09.23-.03.18.14.36.29.52.44.07.06.07.17,0,.23-.03.03-.08.05-.12.05ZM72.8,33.78c-.32,0-.52-.22-.54-.58,0-.09.07-.17.16-.17.09-.01.17.07.17.16.01.26.15.26.21.26.09,0,.17.07.17.16,0,.09-.06.16-.15.17,0,0-.03,0-.03,0ZM73.43,33.54c-.05,0-.11-.03-.14-.07-.05-.08-.03-.18.05-.23.16-.1.32-.24.48-.4.06-.06.17-.06.23,0,.06.06.06.17,0,.23-.18.18-.36.32-.53.44-.03.02-.06.03-.09.03ZM75.68,33.21s-.06,0-.08-.02c-.18-.11-.37-.21-.57-.3-.08-.04-.12-.14-.08-.22.04-.08.13-.12.22-.08.2.09.4.2.6.32.08.05.1.15.06.23-.03.05-.09.08-.14.08ZM72.6,32.74s-.08-.01-.11-.04c-.07-.06-.07-.16-.01-.23.16-.17.39-.28.69-.31.09-.01.17.05.18.14.01.09-.05.17-.14.18-.22.03-.39.1-.49.21-.03.04-.08.05-.12.05ZM74.48,32.66s-.03,0-.05,0c-.03,0-.05-.02-.08-.03-.02,0-.05,0-.07-.02-.16-.05-.32-.08-.47-.1-.09-.01-.15-.1-.14-.19.01-.09.1-.15.19-.14.14.02.28.05.43.09.1-.14.19-.29.28-.44.05-.08.15-.11.22-.06.08.05.11.15.06.22-.08.14-.16.27-.25.4.03.04.04.1.03.15-.02.07-.09.11-.16.11ZM75.02,31.49s-.04,0-.07-.01c-.08-.04-.12-.13-.09-.22.08-.19.16-.4.22-.6.03-.09.12-.14.2-.11.09.03.14.12.11.2-.06.22-.14.43-.23.63-.03.06-.09.1-.15.1ZM75.4,30.23s-.02,0-.03,0c-.09-.02-.15-.1-.13-.19.04-.21.06-.42.08-.63,0-.09.08-.16.17-.15.09,0,.16.08.15.17-.01.22-.04.45-.08.67-.01.08-.08.13-.16.13ZM75.47,28.93c-.08,0-.16-.06-.16-.15-.02-.21-.06-.42-.12-.61-.03-.09.02-.18.11-.21.09-.03.18.02.21.11.07.21.11.44.14.68,0,.09-.06.17-.15.18,0,0-.01,0-.02,0ZM75.08,27.69c-.06,0-.11-.03-.14-.08-.1-.17-.23-.34-.38-.49-.06-.06-.06-.17,0-.23.06-.06.17-.06.23,0,.16.17.31.35.43.55.05.08.02.18-.06.23-.03.02-.06.02-.08.02ZM74.17,26.76s-.06,0-.09-.03c-.17-.11-.35-.22-.55-.31-.08-.04-.12-.14-.08-.22.04-.08.14-.12.22-.08.21.1.41.21.59.34.07.05.09.15.04.23-.03.05-.08.07-.14.07ZM72.99,26.19s-.03,0-.05,0c-.2-.06-.41-.12-.62-.17-.09-.02-.14-.11-.13-.2.02-.09.11-.15.2-.13.22.05.44.11.65.18.09.03.13.12.1.21-.02.07-.09.11-.16.11ZM71.7,25.91s-.01,0-.02,0c-.38-.05-.64-.05-.64-.05-.09,0-.16-.07-.16-.17,0-.09.07-.16.16-.16.01,0,.27,0,.68.05.09.01.15.09.14.18-.01.08-.08.14-.16.14Z"/>
        <path class="cls-7" d="M64.45,35.82s-3.5-5.88-2.12-5.56c1.38.32,2.48,4.03,2.48,4.03,0,0,.2-7.43,1.12-6.31.93,1.12,0,4.92,0,4.92,0,0,0-6.13,1.15-4.92,1.16,1.21,0,5.38,0,5.38,0,0,1.16-5.15,1.72-4.15.56,1-.83,5.17-.83,5.17,0,0,1.95-3.26,2.32-2.51.37.75-3.2,5.2-3.2,5.2v3.15l-3.01-.53.37-3.89Z"/>
        <path class="cls-9" d="M66.16,36.25s-.03,0-.04,0c-.09-.02-.14-.11-.11-.2.08-.29.21-1.12-.14-1.48-.2-.2-.54-.24-1.02-.11-.09.02-.18-.03-.2-.12-.02-.09.03-.18.12-.2.6-.16,1.05-.09,1.33.2.56.56.23,1.75.22,1.8-.02.07-.09.12-.16.12Z"/>
        <path class="cls-9" d="M65.93,33.07c-.09,0-.16-.07-.16-.16-.03-.68.11-2.58.12-2.66,0-.09.09-.16.18-.15.09,0,.16.09.15.18,0,.02-.15,1.96-.11,2.62,0,.09-.07.17-.16.17,0,0,0,0,0,0Z"/>
        <path class="cls-9" d="M67.09,33.53s-.02,0-.03,0c-.09-.02-.15-.1-.13-.19l.5-2.9c.02-.09.1-.15.19-.13.09.02.15.1.13.19l-.5,2.9c-.01.08-.08.14-.16.14Z"/>
        <path class="cls-6" d="M63.14,36.67s.14,9.99-.57,10.27-7.46-3.94-7.46-3.94l-15.77,1.18-15.79,1.32s-14.86,6.79-15,9.04c-.14,2.25,7.33,6.38,7.33,6.38l3.48-3.64-6.74-2.46,8.96-3.21c-1.8,6.52-2.45,12-2.45,12l12.74-.21,3.38,9.15,3.95-.34.75-8.94,1.29-.02.75,8.97,3.95.34,3.48-9.44,13.66-.23s-1.96-7.25-5.69-14.91c2.8.84,6.39,1.91,6.96,2.09.96.3,3.57-11.89,3.57-11.89l-4.8-1.49Z"/>
        <path class="cls-5" d="M37.44,41.39l1.19,20.74-20.48.06.42,4.17,45.8-1.37-.45-4.19-22.8.92s-.7-21.1-1.33-21c-.63.11-2.35.68-2.35.68Z"/>
        <path class="cls-9" d="M18.57,66.52c-.08,0-.16-.06-.16-.15l-.42-4.17s.01-.09.04-.13c.03-.03.08-.05.12-.05l20.31-.05-1.18-20.56c0-.07.04-.14.11-.16.07-.02,1.74-.58,2.38-.69.05,0,.12.01.16.04.63.51,1.19,15.94,1.36,20.94l22.63-.92c.08,0,.16.06.17.15l.45,4.19s0,.09-.04.13c-.03.03-.07.05-.12.06l-45.8,1.37h0ZM18.33,62.35l.39,3.83,45.47-1.36-.42-3.87-22.64.92s-.09-.01-.12-.04c-.03-.03-.05-.07-.05-.11-.26-7.88-.8-19.74-1.23-20.82-.56.11-1.74.49-2.12.62l1.18,20.61s-.01.09-.04.12c-.03.03-.07.05-.12.05l-20.3.05Z"/>
        <path class="cls-7" d="M23.4,16.76s11.59-7.27,16.94-3.05c5.35,4.22,17.48,14.27-2.66,20.84-20.14,6.57-19.2-14.56-14.28-17.8Z"/>
        <path class="cls-4" d="M23.83,18.79s-6.49,10.77,3.22,15.13c9.71,4.36,1.62-8.93,8.79-9,7.17-.07,6.65,9.04,9.78,3.59,4.43-7.73-7.79-13.66-5.96-13.95,1.83-.28,3.09-.77,3.64.3,1.62,3.17,20.54,5.91,18.43,16.46-2.11,10.55-8.58,18.15-27.15,18.71-18.57.56-23.56-11.25-18.78-20.12,4.78-8.86,2.27-10.41,3.82-10.55,1.55-.14,4.21-.57,4.21-.57Z"/>
        <path class="cls-9" d="M36.59,27.2c-.55,0-2.05-1.16-2.7-1.69-.07-.06-.08-.16-.02-.23.06-.07.16-.08.23-.02.93.75,2.07,1.54,2.42,1.61-.03-.52-1.05-2.95-2.07-5.13-.04-.08,0-.18.08-.22.08-.04.18,0,.22.08.7,1.48,2.29,4.96,2.08,5.46-.03.06-.07.11-.13.13-.03,0-.06.01-.09.01Z"/>
        <path class="cls-9" d="M37.37,32.13c-.1,0-.22-.03-.35-.11-1.55-.89-3.11-3.99-3.18-4.12-.04-.08,0-.18.07-.22.08-.04.18,0,.22.07.02.03,1.58,3.14,3.05,3.98.16.09.25.06.3.03.6-.39.54-3.44.36-5.28,0-.09.06-.17.15-.18.09-.01.17.06.18.15.05.51.47,4.96-.5,5.58-.07.05-.17.09-.29.09Z"/>
        <path class="cls-9" d="M28.43,26.64c-1.94,0-2.9-3.76-2.94-3.93-.02-.09.03-.18.12-.2.09-.02.18.03.2.12,0,.04.98,3.81,2.71,3.67.29-.02.5-.14.63-.35.57-.91-.34-3.2-.35-3.22-.03-.08,0-.18.09-.21.08-.03.18,0,.21.09.04.1.98,2.46.33,3.52-.19.31-.49.48-.89.51-.04,0-.07,0-.11,0Z"/>
        <path class="cls-9" d="M39.93,23.7c-.06,0-.13,0-.21-.02-1.74-.37-2.19-3.59-2.21-3.73-.01-.09.05-.17.14-.18.09-.02.17.05.18.14,0,.03.43,3.12,1.95,3.45.23.05.33-.02.38-.08.44-.5-.1-2.63-.54-3.85-.03-.09.01-.18.1-.21.08-.03.18.01.21.1.12.34,1.18,3.37.48,4.18-.09.1-.24.21-.49.21Z"/>
        <path class="cls-6" d="M27.3,30.32c.72-.43.95-1.36.52-2.07-.43-.72-1.36-.95-2.07-.52-.72.43-.95,1.36-.52,2.07.43.72,1.36.95,2.07.52Z"/>
        <path class="cls-6" d="M42.99,25.04c.84,0,1.51-.68,1.51-1.51s-.68-1.51-1.51-1.51-1.51.68-1.51,1.51.68,1.51,1.51,1.51Z"/>
        <path class="cls-6" d="M37.39,12.29s-3.67-5.94-9.81-9.03c-6.15-3.09-15.15,7.53-15.15,7.53l8.09-2.25s-1.53,7.48-.89,8.3c.63.82,17.77-4.55,17.77-4.55Z"/>
        <path class="cls-5" d="M11.65,13.04c1.19,0,2.16-.97,2.16-2.16s-.97-2.16-2.16-2.16-2.16.97-2.16,2.16.97,2.16,2.16,2.16Z"/>
        <path class="cls-9" d="M11.65,13.2c-1.28,0-2.32-1.04-2.32-2.32s1.04-2.32,2.32-2.32,2.32,1.04,2.32,2.32-1.04,2.32-2.32,2.32ZM11.65,8.88c-1.1,0-2,.9-2,2s.9,2,2,2,2-.9,2-2-.9-2-2-2Z"/>
        <path class="cls-5" d="M18.57,16.39s20.49-7.78,22.17-6.01c1.68,1.76,2.56,4.48,2.56,4.48,0,0-23.84,7.84-24.34,6.8-.49-1.04-.39-5.27-.39-5.27Z"/>
        <path class="cls-9" d="M19.3,21.93c-.4,0-.45-.1-.49-.19-.5-1.06-.41-5.17-.41-5.35,0-.07.04-.13.11-.15,2.11-.8,20.64-7.76,22.35-5.97,1.69,1.77,2.56,4.43,2.59,4.55.03.09-.02.18-.1.21-.06.02-6.03,1.98-11.99,3.79-8.46,2.57-11.16,3.11-12.06,3.11ZM19.11,21.58c.94.47,15.12-3.9,23.99-6.82-.21-.6-1.06-2.79-2.47-4.27-1.18-1.23-13.7,2.91-21.89,6.01-.01.67-.05,4.14.37,5.07Z"/>
        <path class="cls-7" d="M20.14,27.59c.87-.87.87-2.28,0-3.15-.87-.87-2.28-.87-3.15,0-.87.87-.87,2.28,0,3.15.87.87,2.28.87,3.15,0Z"/>
        <path class="cls-7" d="M47.35,20.03c1.23,0,2.23-1,2.23-2.23s-1-2.23-2.23-2.23-2.23,1-2.23,2.23,1,2.23,2.23,2.23Z"/>
        <path class="cls-9" d="M19.22,26.89c-.08,0-.15-.06-.16-.14-.17-1.12-.48-1.44-.72-1.51-.36-.11-.76.31-.76.31-.06.07-.17.07-.23,0-.07-.06-.07-.17,0-.23.02-.02.54-.57,1.1-.4.47.14.78.74.94,1.77.01.09-.05.17-.14.19,0,0-.02,0-.03,0Z"/>
        <path class="cls-9" d="M47.02,19.3c-.07,0-.14-.05-.16-.12-.3-1.04-.28-1.81.08-2.28.33-.45.83-.45.85-.45.09,0,.16.07.16.16s-.07.16-.16.16c-.01,0-.36,0-.59.32-.28.38-.29,1.07-.02,1.99.03.09-.02.18-.11.2-.02,0-.03,0-.05,0Z"/>
        <path class="cls-4" d="M18.05,5.6s2.11,2.79,4.92,1.74c2.81-1.05,1.76-4.01,3.59-1.2,1.83,2.81,6.37.91,6.31.85-.07-.06-3.63-4.09-6.66-5-3.02-.91-8.16,3.61-8.16,3.61Z"/>
        <path class="cls-7" d="M18.15,58.23s3.03,1.55,2.02,4.37c-1.01,2.82-6.58,4.51-5.44,2.85.69-1,3.8-1.95,3.8-1.95,0,0-4.08,1.34-4.85.47-.42-.47,3.88-1.17,4.04-1.17.17,0-2.46.33-3.1-.62-.63-.95,3.05.79,3.53-1.06.48-1.85-.84-1.74-.84-1.74l.84-1.16Z"/>
        <path class="cls-9" d="M20.53,55.86s39.15-2.86,39.22-2.65c.07.21,1.04,2.67,1.04,2.67l-40.69,1.98.42-2Z"/>
        <path class="cls-11" d="M35.68,53.53l7.34-.63v5.32l-6.59.66-.75-5.36Z"/>
        <path class="cls-9" d="M37.52,54.7l3.67-.31v2.66l-3.3.33-.37-2.68Z"/>
        <path class="cls-9" d="M20.51,8.7c-.07,0-.14-.05-.16-.12-.02-.09.03-.18.11-.2.95-.26,3.01-.16,3.1-.15.09,0,.16.08.15.17,0,.09-.08.16-.17.15-.02,0-2.09-.11-2.99.14-.01,0-.03,0-.04,0Z"/>
        <path class="cls-9" d="M35.45,14.54s-.05,0-.07-.01c-.08-.04-.12-.14-.08-.22.18-.39.41-.61.69-.65.41-.06.73.31.75.33.06.07.05.17-.02.23-.07.06-.17.05-.23-.02-.06-.07-.26-.24-.45-.22-.2.03-.35.27-.44.46-.03.06-.09.1-.15.1Z"/>
        <path class="cls-9" d="M37.2,15.52s-.05,0-.07-.01c-.08-.04-.12-.13-.08-.22.18-.39.41-.61.69-.65.41-.06.73.31.75.33.06.07.05.17-.02.23-.07.06-.17.05-.23-.02-.06-.07-.26-.24-.45-.22-.2.03-.35.27-.44.46-.03.06-.09.1-.15.1Z"/>
        <path class="cls-9" d="M33.4,15.01s-.05,0-.07-.01c-.08-.04-.12-.14-.08-.22.18-.39.41-.61.69-.65.41-.06.73.31.75.33.06.07.05.17-.02.23-.07.06-.17.05-.23-.02-.06-.07-.26-.25-.45-.22-.2.03-.35.27-.44.46-.03.06-.09.1-.15.1Z"/>
        <path class="cls-9" d="M35.13,15.9s-.05,0-.07-.01c-.08-.04-.12-.14-.08-.22.18-.39.41-.61.69-.65.41-.06.73.31.75.33.06.07.05.17-.02.23-.07.06-.17.05-.23-.02-.06-.07-.26-.25-.45-.22-.2.03-.35.27-.44.46-.03.06-.09.1-.15.1Z"/>
        <path class="cls-9" d="M33.01,16.59s-.05,0-.07-.01c-.08-.04-.12-.13-.08-.22.18-.39.41-.61.69-.65.41-.06.73.31.75.33.06.07.05.17-.02.23-.07.06-.17.05-.23-.02-.06-.07-.26-.25-.45-.22-.2.03-.35.27-.44.46-.03.06-.09.1-.15.1Z"/>
        <path class="cls-5" d="M62.87,36.09l-.19,1.73,5.69,1.82.71-1.98-6.21-1.58Z"/>
        <path class="cls-9" d="M68.38,39.81s-.03,0-.05,0l-5.69-1.82c-.07-.02-.12-.1-.11-.17l.19-1.73s.03-.09.07-.12c.04-.03.09-.04.13-.02l6.21,1.58s.08.04.1.08c.02.04.03.09,0,.13l-.71,1.98c-.02.07-.09.11-.15.11ZM62.87,37.7l5.41,1.73.6-1.66-5.85-1.49-.15,1.41Z"/>
        <path class="cls-5" d="M18.34,55.9l-3.84,4.72,1.54,1.09,4.33-5.1-2.03-.71Z"/>
        <path class="cls-9" d="M16.04,61.87s-.07,0-.09-.03l-1.54-1.09s-.06-.07-.07-.11c0-.04,0-.09.04-.13l3.84-4.72c.04-.05.12-.07.18-.05l2.03.71c.05.02.09.06.1.11.01.05,0,.11-.03.15l-4.33,5.1s-.08.06-.13.06ZM14.74,60.59l1.27.9,4.08-4.81-1.69-.59-3.66,4.49Z"/>
        <path class="cls-9" d="M34.3,48.9c-.23,0-.48-.02-.74-.06-1.46-.25-2.44-.85-3.06-1.52,0,0-.01.02-.02.03-.5.6-1.66,1.52-3.73.87-1.85-.58-2.7-1.6-3.02-2.55-.39.48-.88.89-1.4,1.08-.59.22-1.49.25-2.35-.88-.9-1.17-1.06-2.14-.99-2.83-.22.03-.46.04-.69.03-1-.06-1.75-.57-2.11-1.44-.59-1.4-.1-2.75.58-3.59-.47-.29-1.01-.86-1.14-1.93-.16-1.36.58-2.52,1.43-3.26-.39-.29-.7-.7-.88-1.21-.22-.64-.2-1.19.06-1.65.44-.75,1.4-.93,1.44-.94.09-.02.17.04.19.13.02.09-.04.17-.13.19,0,0-.85.16-1.21.78-.21.36-.23.82-.04,1.37.19.56.52.89.83,1.1.4-.3.8-.5,1.13-.59.6-.16.79.12.84.25.1.24.07.47-.07.65-.22.28-.7.4-1.22.31-.23-.04-.45-.11-.65-.22-.81.68-1.55,1.78-1.4,3.04.12.98.62,1.47,1.03,1.72.21-.22.43-.38.64-.49.47-.24.87-.18,1.07.16.18.3.08.52,0,.62-.22.29-.76.38-1.33.23-.07-.02-.18-.05-.31-.11-.63.76-1.12,2.02-.58,3.3.4.96,1.22,1.2,1.83,1.24.24.01.49,0,.73-.04.04-.16.09-.31.14-.42.26-.6.76-1.04,1.22-1.09.22-.02.41.06.53.23.13.18.13.41,0,.62-.22.38-.85.77-1.6.94-.09.63.03,1.55.91,2.69.5.65,1.05.94,1.63.86.68-.09,1.3-.65,1.76-1.26-.1-.5-.06-.95.03-1.28.16-.55.48-.86.8-.78.07.02.24.09.25.37.02.39-.26,1.1-.73,1.76.23.92,1,1.97,2.87,2.56,1.89.59,2.93-.23,3.38-.77.02-.02.04-.05.06-.07-.46-.6-.65-1.24-.63-1.72.02-.59.34-.99.83-1.04.27-.02.49.1.63.36.27.51.15,1.53-.42,2.38.57.64,1.5,1.22,2.92,1.46,2.12.37,3.32-1.05,3.74-1.67.12-.18.23-.36.31-.54-.45-.66-.66-1.33-.51-1.73.08-.22.25-.35.49-.38.25-.03.45.06.57.26.23.38.15,1.09-.17,1.82.1.14.22.28.34.41.53.57,1.97,1.83,3.93,1.28,1.76-.5,2.62-2.01,2.85-3.31-.71-.5-1.17-1.09-1.26-1.54-.07-.39.12-.68.53-.78.48-.12.87.19,1.03.83.09.36.12.83.05,1.34.88.58,2.15,1.03,3.56.85,1.22-.16,1.74-1.26,1.95-2.16.14-.59.18-1.22.15-1.81-.84-.59-1.46-1.37-1.58-1.89-.08-.38.09-.57.2-.64.27-.19.56-.19.81-.02.48.33.8,1.28.88,2.37.49.32,1.05.57,1.61.67,1.09.19,1.96-.23,2.59-1.23,1.06-1.7.56-3.02.11-3.7-.38.01-.74-.04-1.05-.14-.57-.19-.93-.55-.95-.95-.01-.19.07-.33.23-.39.41-.16,1.21.28,1.8.98.04.05.09.11.13.17.91-.07,1.97-.53,2.83-1.54,1.08-1.29.47-3.06-.42-4.16-.28.16-.53.2-.68.21-.51.02-.99-.24-1.15-.62-.11-.25-.05-.51.16-.7.32-.3.91-.11,1.54.49.06.06.13.13.19.2.36-.3.66-.81.87-1.48.55-1.77-.64-3.18-1.79-3.73-.11.37-.33.61-.47.74-.47.41-1.15.52-1.52.26-.13-.09-.39-.36-.15-.94.26-.61.99-.81,1.88-.52,0-.35-.1-.75-.33-1.17-.75-1.39-2.01-1.82-2.96-1.8-.01.12-.04.24-.08.36-.18.56-.6.98-1,.98-.25,0-.44-.15-.55-.42-.15-.41.07-.8.59-1.04.21-.1.45-.16.71-.19-.02-.37-.19-.84-.75-1.27-1.78-1.36-3.49.24-3.56.31-.07.06-.17.06-.23,0-.06-.07-.06-.17,0-.23.02-.02,1.98-1.87,3.99-.34.54.41.85.95.88,1.51,1.11-.02,2.46.54,3.24,1.98.32.59.4,1.07.37,1.45,1.28.58,2.67,2.16,2.04,4.16-.26.84-.62,1.34-.97,1.63.92,1.15,1.66,3.07.4,4.56-.86,1.02-1.92,1.51-2.88,1.63.46.79.88,2.16-.2,3.91-.88,1.41-2.07,1.53-2.92,1.38-.54-.09-1.06-.31-1.53-.6.01.56-.04,1.14-.17,1.67-.34,1.41-1.13,2.26-2.23,2.41-1.4.18-2.7-.23-3.66-.82-.29,1.37-1.22,2.91-3.05,3.43-2.14.6-3.69-.76-4.26-1.37-.09-.1-.18-.2-.26-.31-.08.15-.16.29-.26.43-.4.6-1.48,1.87-3.33,1.87ZM30.56,44.63s-.02,0-.04,0c-.32.03-.52.3-.54.72-.02.4.13.91.5,1.42.45-.73.55-1.56.34-1.96-.08-.16-.19-.19-.27-.19ZM37.75,44.5s-.03,0-.05,0c-.12.01-.19.07-.22.17-.09.25.03.72.36,1.26.22-.58.25-1.09.11-1.32-.05-.08-.11-.11-.2-.11ZM24.35,43.51c-.09,0-.27.18-.38.56-.06.21-.09.48-.07.78.14-.22.25-.44.32-.63.2-.48.16-.68.14-.71,0,0,0,0-.01,0ZM44.65,42.63s-.07,0-.11.01c-.24.06-.32.18-.28.4.06.32.42.79.98,1.23.04-.39.01-.75-.06-1.04-.06-.24-.21-.6-.53-.6ZM20.47,41.5s-.02,0-.04,0c-.29.03-.71.34-.95.89-.03.06-.05.13-.08.21.59-.16,1.08-.46,1.24-.74.08-.14.04-.23.01-.28-.02-.02-.06-.09-.19-.09ZM50.25,39.02c-.08,0-.15.03-.24.09-.03.02-.12.08-.07.3.09.42.57,1.02,1.22,1.52-.1-.89-.38-1.62-.71-1.85-.07-.05-.13-.07-.2-.07ZM17.31,37.94c.06.02.12.04.16.05.47.13.86.04.98-.11.02-.02.07-.1-.02-.25-.15-.24-.47-.13-.64-.04-.15.08-.31.19-.47.35ZM54.26,35.73s-.05,0-.07.01c-.01,0-.03.01-.02.07.02.26.29.52.73.66.21.07.44.11.69.12-.52-.61-1.09-.86-1.33-.86ZM17.65,32.8c.17.07.32.11.41.12.39.07.77,0,.91-.19.07-.09.08-.19.02-.32-.06-.15-.36-.08-.45-.06-.26.07-.57.22-.89.44ZM57.11,29.95c-.07,0-.12.02-.16.05-.11.1-.13.21-.08.34.09.22.42.45.84.42.17,0,.33-.05.48-.13-.05-.05-.1-.1-.14-.14-.35-.34-.71-.54-.93-.54ZM56.51,24.98c-.36,0-.67.12-.81.45-.08.18-.13.42.04.54.22.16.73.1,1.11-.24.19-.17.32-.38.38-.62-.23-.08-.48-.13-.72-.13ZM53.65,21.84c-.22.03-.41.08-.56.15-.17.08-.54.29-.42.62.08.21.19.21.23.21.22,0,.54-.3.69-.76.02-.06.04-.14.05-.23Z"/>
        <path class="cls-5" d="M34.02,71.81l5.52-.43-.18,1.58-4.64.36-.7-1.5Z"/>
        <path class="cls-9" d="M39.65,71.27s-.08-.05-.13-.05l-5.52.43c-.05,0-.1.03-.13.08-.03.05-.03.1,0,.15l.7,1.5c.03.06.09.1.15.1,0,0,0,0,.01,0l1.03-.08c.23,1.72-6.02,2.01-2.06,2.81,3.6.73,3.71-1.93,3.67-2.65l.16,2.06,1.3-.39-.35-2.04.88-.07c.08,0,.14-.07.15-.14l.18-1.58s-.01-.1-.04-.13ZM39.21,72.81l-4.39.34-.55-1.19,5.08-.39-.14,1.24Z"/>
        <path class="cls-5" d="M41.53,70.92l5.56.23-.42,1.63-5.15.18v-2.04Z"/>
        <path class="cls-9" d="M45.49,72.98l1.19-.04c.07,0,.14-.05.15-.12l.42-1.63s0-.1-.03-.14c-.03-.04-.08-.06-.13-.07l-5.56-.23s-.09.01-.12.05c-.03.03-.05.07-.05.12v2.04s.02.09.05.12c.03.03.07.05.11.05h0l1.2-.04-.34,2.15,1.3.39.16-2.06c-.03.72.07,3.39,3.67,2.65,4.02-.82-2.41-1.21-2.04-3.23ZM41.69,71.09l5.19.21-.34,1.31-4.85.17v-1.69Z"/>
      </g>
    </g>
  </g>
</svg>